<?xml version="1.0" encoding="UTF-8"?>
<svg version="1.1" xmlns="http://www.w3.org/2000/svg" width="640" height="640">
<path d="M0 0 C211.2 0 422.4 0 640 0 C640 211.2 640 422.4 640 640 C428.8 640 217.6 640 0 640 C0 428.8 0 217.6 0 0 Z " fill="#000000" transform="translate(0,0)"/>
<path d="M0 0 C8.96016248 6.53260714 15.71890722 16.06324678 18.03125 27.046875 C19.24441174 37.59464236 18.54131579 47.34448072 15.3125 57.4921875 C14.6525 57.4921875 13.9925 57.4921875 13.3125 57.4921875 C13.21839844 58.21664062 13.12429688 58.94109375 13.02734375 59.6875 C10.71529853 68.7588031 1.87309415 74.84236043 -5.6875 79.4921875 C-6.52539062 80.02585937 -7.36328125 80.55953125 -8.2265625 81.109375 C-14.84787687 84.82992307 -22.27558667 84.77071451 -29.6875 84.4921875 C-29.99494141 85.75675781 -29.99494141 85.75675781 -30.30859375 87.046875 C-30.71271484 88.69042969 -30.71271484 88.69042969 -31.125 90.3671875 C-31.39183594 91.45773438 -31.65867187 92.54828125 -31.93359375 93.671875 C-32.6875 96.4921875 -32.6875 96.4921875 -33.6875 98.4921875 C-33.12804687 98.88148438 -32.56859375 99.27078125 -31.9921875 99.671875 C-30.26182201 100.87923613 -28.53425175 102.09060755 -26.80859375 103.3046875 C-24.62078484 104.83807047 -22.42663114 106.35756546 -20.22265625 107.8671875 C-13.85220132 112.27195665 -8.05490358 116.68608648 -2.75 122.38671875 C-0.62945661 124.63310674 -0.62945661 124.63310674 2.25 126.86328125 C5.41426852 129.45660999 7.88268434 132.46652229 10.3125 135.7421875 C10.74618896 136.32081543 11.17987793 136.89944336 11.62670898 137.49560547 C12.48311499 138.64526614 13.3354103 139.79800303 14.18310547 140.95410156 C15.10008816 142.20291067 16.0339032 143.43934746 16.97265625 144.671875 C27.19119182 158.84689092 33.27226381 176.85334627 40.19140625 192.82421875 C40.4961084 193.52587158 40.80081055 194.22752441 41.11474609 194.95043945 C41.93767054 196.84843095 42.75612864 198.74835725 43.57421875 200.6484375 C44.84276642 203.51706369 46.2124475 206.32067083 47.625 209.12109375 C50.75326747 215.33276204 53.7211101 221.61028676 56.625 227.9296875 C57.17478516 229.08017578 57.72457031 230.23066406 58.29101562 231.41601562 C61.54979573 238.56104281 63.56177556 244.6037599 62.3125 252.4921875 C61.2109375 255.359375 61.2109375 255.359375 59.6875 257.3671875 C59.20023437 258.04523438 58.71296875 258.72328125 58.2109375 259.421875 C53.46483635 264.59766432 48.79426387 267.49360946 42.375 270.1171875 C41.69759766 270.40335937 41.02019531 270.68953125 40.32226562 270.984375 C39.65001953 271.26796875 38.97777344 271.5515625 38.28515625 271.84375 C37.62273926 272.12637695 36.96032227 272.40900391 36.27783203 272.70019531 C34.40429722 273.45519493 32.48098794 274.08299784 30.55859375 274.703125 C26.23667874 277.08511907 24.72286837 279.90721066 23.3125 284.4921875 C22.85866727 288.64071812 22.83112934 292.74473316 22.88777542 296.91547966 C22.91459452 298.99835022 22.91430371 301.07971964 22.90707397 303.16273499 C22.89152207 309.07838235 22.92567623 314.9934891 22.97265625 320.90893555 C22.99966358 324.54296404 22.99728015 328.17608929 22.97819138 331.81015205 C22.97711749 333.18434139 22.9873972 334.55859314 23.00981522 335.93260002 C23.15391866 344.79067675 22.40661768 350.80869843 16.3125 357.4921875 C12.06315435 361.82496711 8.88768797 363.39253161 2.84412003 363.62640858 C1.42818875 363.63580364 0.01221484 363.63971615 -1.40374756 363.63935852 C-2.18556278 363.64303521 -2.96737801 363.6467119 -3.77288461 363.6505 C-6.39514587 363.66152151 -9.01736749 363.66537806 -11.63964844 363.66918945 C-13.51886114 363.67545521 -15.3980726 363.68210211 -17.27728271 363.68910217 C-23.45047139 363.71012983 -29.62366027 363.72050266 -35.796875 363.73046875 C-37.92273217 363.73451665 -40.0485892 363.73863358 -42.17444611 363.74281883 C-52.16118498 363.76186685 -62.14791647 363.77609928 -72.13467002 363.7844308 C-83.66037987 363.7942052 -95.18589777 363.82053174 -106.71153998 363.86093169 C-115.62207698 363.89109286 -124.53255894 363.90589964 -133.44314599 363.90921181 C-138.76428511 363.91156209 -144.08521907 363.92052 -149.40630341 363.94567299 C-154.41321393 363.96895892 -159.41978428 363.97318477 -164.42673492 363.96291161 C-166.26170483 363.96241628 -168.09669152 363.96873573 -169.93161011 363.98246765 C-172.44258499 364.00020371 -174.95234122 363.99307263 -177.46331787 363.97993469 C-178.54486416 363.99638856 -178.54486416 363.99638856 -179.64825988 364.01317483 C-185.91500856 363.9343585 -191.28584939 361.90750974 -195.74609375 357.421875 C-196.20113281 356.74382812 -196.65617187 356.06578125 -197.125 355.3671875 C-197.59808594 354.68398438 -198.07117188 354.00078125 -198.55859375 353.296875 C-200.36108311 350.41538682 -200.80281578 348.7899745 -200.75 345.41650391 C-200.740896 344.57447418 -200.73179199 343.73244446 -200.72241211 342.86489868 C-200.70513062 341.49318008 -200.70513062 341.49318008 -200.6875 340.09375 C-200.68634025 338.14973949 -200.68772756 336.20572612 -200.69140625 334.26171875 C-200.6958001 331.20213735 -200.68798077 328.14560781 -200.63623047 325.08642578 C-200.42426405 311.39339493 -200.9986668 303.70884992 -210.6875 293.4921875 C-212.31871423 290.99643532 -213.6733953 288.4097525 -215 285.7421875 C-215.32774414 285.10224854 -215.65548828 284.46230957 -215.99316406 283.80297852 C-216.89663558 282.03544413 -217.79242451 280.26398841 -218.6875 278.4921875 C-219.09871094 277.75355469 -219.50992188 277.01492188 -219.93359375 276.25390625 C-223.33359925 270.07568614 -224.87034885 263.26451134 -226.6875 256.4921875 C-227.35058466 254.15783371 -228.01682453 251.82437174 -228.6875 249.4921875 C-235.53607189 225.32075731 -231.67271563 199.12118853 -224.6875 175.4921875 C-224.4488623 174.66686523 -224.21022461 173.84154297 -223.96435547 172.99121094 C-223.7170166 172.18458008 -223.46967773 171.37794922 -223.21484375 170.546875 C-222.9943335 169.81710449 -222.77382324 169.08733398 -222.54663086 168.33544922 C-221.6875 166.4921875 -221.6875 166.4921875 -218.6875 164.4921875 C-219.574375 164.5334375 -220.46125 164.5746875 -221.375 164.6171875 C-224.68786753 164.49217363 -226.68624565 163.79085633 -229.6875 162.4921875 C-230.22117187 163.01167969 -230.75484375 163.53117188 -231.3046875 164.06640625 C-241.02220972 173.16187255 -251.74692045 178.11707129 -265.20703125 178.625 C-275.82170876 178.22709588 -285.20509457 174.95497259 -293.6875 168.4921875 C-294.656875 167.7909375 -295.62625 167.0896875 -296.625 166.3671875 C-305.07802017 159.11223318 -310.25461064 148.41458939 -311.6875 137.4921875 C-312.58607343 121.93995512 -309.55722215 110.9794405 -299.875 98.7421875 C-296.32119304 94.83024496 -292.2645527 92.09132507 -287.6875 89.4921875 C-286.87152344 89.00234375 -286.05554688 88.5125 -285.21484375 88.0078125 C-274.69870094 82.6211264 -261.31472797 82.75292422 -249.953125 85.34375 C-242.92311471 88.0209819 -237.1705756 92.40961481 -231.6875 97.4921875 C-230.71490234 98.38357422 -230.71490234 98.38357422 -229.72265625 99.29296875 C-221.46334221 107.73301177 -217.50764162 119.68620809 -217.625 131.3046875 C-217.63402344 132.46613281 -217.64304687 133.62757813 -217.65234375 134.82421875 C-217.66394531 135.70464844 -217.67554688 136.58507812 -217.6875 137.4921875 C-216.51380859 137.23308594 -216.51380859 137.23308594 -215.31640625 136.96875 C-212.58782597 136.47411881 -211.28028581 136.65580498 -208.6875 137.4921875 C-207.35547548 137.83071307 -206.02228952 138.16473394 -204.6875 138.4921875 C-203.883125 137.5434375 -203.07875 136.5946875 -202.25 135.6171875 C-201.06286027 134.24187644 -199.87532011 132.86691098 -198.6875 131.4921875 C-198.03394531 130.72003906 -197.38039063 129.94789063 -196.70703125 129.15234375 C-190.20148438 121.65141266 -182.3180195 112.72579259 -172.6875 109.4921875 C-172.6875 108.8321875 -172.6875 108.1721875 -172.6875 107.4921875 C-171.0478125 106.780625 -171.0478125 106.780625 -169.375 106.0546875 C-166.13567007 104.2120727 -164.97032701 102.6300706 -163.75 99.1171875 C-162.78249043 95.52018875 -162.31383694 92.22881815 -162.6875 88.4921875 C-164.59791479 86.58177271 -167.42340321 87.31982587 -169.97290039 87.25341797 C-183.06902209 86.88054828 -193.60855384 84.48631558 -203.6875 75.4921875 C-204.19603516 74.45578125 -204.19603516 74.45578125 -204.71484375 73.3984375 C-205.96243907 70.95335109 -207.26799888 70.67402074 -209.6875 69.4921875 C-218.60336527 57.9326645 -220.00256364 43.7343779 -218.3671875 29.75390625 C-216.11646789 17.90693669 -208.58826496 8.04339136 -199.0234375 0.9921875 C-195.42300071 -1.31979867 -191.67045785 -2.97422836 -187.6875 -4.5078125 C-186.98109375 -4.86359375 -186.2746875 -5.219375 -185.546875 -5.5859375 C-174.92660807 -9.00995799 -161.311805 -7.52415562 -151.30859375 -2.9453125 C-147.79733813 -1.01961642 -144.72886199 0.8752016 -141.6875 3.4921875 C-141.6875 4.1521875 -141.6875 4.8121875 -141.6875 5.4921875 C-141.11 5.72035156 -140.5325 5.94851562 -139.9375 6.18359375 C-133.26307867 10.06541866 -128.64714768 19.09858248 -126.30078125 26.26171875 C-124.10725864 37.81613401 -124.62571203 51.10908521 -129.9375 61.6171875 C-130.52015625 62.79539062 -131.1028125 63.97359375 -131.703125 65.1875 C-133.76632228 68.62345453 -135.75541512 70.81286855 -138.6875 73.4921875 C-137.19579734 78.4645297 -135.08292583 82.91064489 -132.6875 87.4921875 C-126.48517138 87.11204478 -120.40339294 86.69637762 -114.3125 85.4296875 C-108.09141577 84.30468711 -101.92692515 84.30517323 -95.625 84.3046875 C-94.60035645 84.3039624 -93.57571289 84.3032373 -92.52001953 84.30249023 C-85.09133102 84.35757716 -85.09133102 84.35757716 -81.6875 85.4921875 C-79.20873098 85.8531459 -76.73555334 86.18715315 -74.25 86.4921875 C-66.20138889 87.48565155 -66.20138889 87.48565155 -62.6875 88.4921875 C-62.3575 87.8321875 -62.0275 87.1721875 -61.6875 86.4921875 C-61.20667969 86.04230469 -60.72585938 85.59242188 -60.23046875 85.12890625 C-58.47133936 83.26289305 -57.83039366 81.71678336 -57 79.3046875 C-56.74863281 78.58925781 -56.49726563 77.87382812 -56.23828125 77.13671875 C-56.05652344 76.59402344 -55.87476563 76.05132812 -55.6875 75.4921875 C-56.26886719 75.23953125 -56.85023438 74.986875 -57.44921875 74.7265625 C-65.16229068 70.47293121 -71.22974854 60.84736429 -74.10742188 52.75341797 C-77.27163953 40.41882878 -76.11735917 25.53335982 -69.6875 14.4921875 C-62.90453054 3.82382777 -53.09095593 -4.53078806 -40.828125 -7.97265625 C-25.71919259 -10.54718826 -12.60667361 -8.72915338 0 0 Z " fill="#040404" transform="translate(431.6875,139.5078125)"/>
<path d="M0 0 C10.35270584 0.16936942 21.97336415 12.21018832 28.875 19.1875 C29.36484375 19.70699219 29.8546875 20.22648437 30.359375 20.76171875 C32.24269441 22.6748954 32.24269441 22.6748954 35.015625 24.81640625 C38.19106753 27.43324257 40.68081778 30.45496705 43.125 33.75 C43.55868896 34.32862793 43.99237793 34.90725586 44.43920898 35.50341797 C45.29561499 36.65307864 46.1479103 37.80581553 46.99560547 38.96191406 C47.91258816 40.21072317 48.8464032 41.44715996 49.78515625 42.6796875 C60.00369182 56.85470342 66.08476381 74.86115877 73.00390625 90.83203125 C73.3086084 91.53368408 73.61331055 92.23533691 73.92724609 92.95825195 C74.75017054 94.85624345 75.56862864 96.75616975 76.38671875 98.65625 C77.65526642 101.52487619 79.0249475 104.32848333 80.4375 107.12890625 C83.56576747 113.34057454 86.5336101 119.61809926 89.4375 125.9375 C89.98728516 127.08798828 90.53707031 128.23847656 91.10351562 129.42382812 C94.36229573 136.56885531 96.37427556 142.6115724 95.125 150.5 C94.0234375 153.3671875 94.0234375 153.3671875 92.5 155.375 C92.01273437 156.05304688 91.52546875 156.73109375 91.0234375 157.4296875 C86.27733635 162.60547682 81.60676387 165.50142196 75.1875 168.125 C74.51009766 168.41117188 73.83269531 168.69734375 73.13476562 168.9921875 C72.12639648 169.41757812 72.12639648 169.41757812 71.09765625 169.8515625 C70.43523926 170.13418945 69.77282227 170.41681641 69.09033203 170.70800781 C67.21679722 171.46300743 65.29348794 172.09081034 63.37109375 172.7109375 C59.04917874 175.09293157 57.53536837 177.91502316 56.125 182.5 C55.67116727 186.64853062 55.64362934 190.75254566 55.70027542 194.92329216 C55.72709452 197.00616272 55.72680371 199.08753214 55.71957397 201.17054749 C55.70402207 207.08619485 55.73817623 213.0013016 55.78515625 218.91674805 C55.81216358 222.55077654 55.80978015 226.18390179 55.79069138 229.81796455 C55.78961749 231.19215389 55.7998972 232.56640564 55.82231522 233.94041252 C55.96641866 242.79848925 55.21911768 248.81651093 49.125 255.5 C44.87565435 259.83277961 41.70018797 261.40034411 35.65662003 261.63422108 C34.24068875 261.64361614 32.82471484 261.64752865 31.40875244 261.64717102 C30.62693722 261.65084771 29.84512199 261.6545244 29.03961539 261.6583125 C26.41735413 261.66933401 23.79513251 261.67319056 21.17285156 261.67700195 C19.29363886 261.68326771 17.4144274 261.68991461 15.53521729 261.69691467 C9.36202861 261.71794233 3.18883973 261.72831516 -2.984375 261.73828125 C-5.11023217 261.74232915 -7.2360892 261.74644608 -9.36194611 261.75063133 C-19.34868498 261.76967935 -29.33541647 261.78391178 -39.32217002 261.7922433 C-50.84787987 261.8020177 -62.37339777 261.82834424 -73.89903998 261.86874419 C-82.80957698 261.89890536 -91.72005894 261.91371214 -100.63064599 261.91702431 C-105.95178511 261.91937459 -111.27271907 261.9283325 -116.59380341 261.95348549 C-121.60071393 261.97677142 -126.60728428 261.98099727 -131.61423492 261.97072411 C-133.44920483 261.97022878 -135.28419152 261.97654823 -137.11911011 261.99028015 C-139.63008499 262.00801621 -142.13984122 262.00088513 -144.65081787 261.98774719 C-145.73236416 262.00420106 -145.73236416 262.00420106 -146.83575988 262.02098733 C-153.10250856 261.942171 -158.47334939 259.91532224 -162.93359375 255.4296875 C-163.61615234 254.41261719 -163.61615234 254.41261719 -164.3125 253.375 C-165.02212891 252.35019531 -165.02212891 252.35019531 -165.74609375 251.3046875 C-167.54858311 248.42319932 -167.99031578 246.797787 -167.9375 243.42431641 C-167.928396 242.58228668 -167.91929199 241.74025696 -167.90991211 240.87271118 C-167.89263062 239.50099258 -167.89263062 239.50099258 -167.875 238.1015625 C-167.87384025 236.15755199 -167.87522756 234.21353862 -167.87890625 232.26953125 C-167.8833001 229.20994985 -167.87548077 226.15342031 -167.82373047 223.09423828 C-167.61176405 209.40120743 -168.1861668 201.71666242 -177.875 191.5 C-179.50621423 189.00424782 -180.8608953 186.417565 -182.1875 183.75 C-182.51524414 183.11006104 -182.84298828 182.47012207 -183.18066406 181.81079102 C-184.08413558 180.04325663 -184.97992451 178.27180091 -185.875 176.5 C-186.28621094 175.76136719 -186.69742188 175.02273438 -187.12109375 174.26171875 C-190.52109925 168.08349864 -192.05784885 161.27232384 -193.875 154.5 C-194.53808466 152.16564621 -195.20432453 149.83218424 -195.875 147.5 C-201.78078673 126.65604684 -199.74040941 103.23422739 -194.5 82.5 C-194.30317627 81.71028809 -194.10635254 80.92057617 -193.90356445 80.10693359 C-192.54521702 75.03512222 -190.65908555 70.95453687 -187.875 66.5 C-182.37623317 65.96291115 -178.82280054 67.77609123 -174.1875 70.4375 C-167.8870943 73.92127827 -161.52999137 77.15534663 -155 80.1875 C-148.14052559 83.38572301 -141.44539654 86.73494131 -134.875 90.5 C-135.03355469 91.79035156 -135.19210937 93.08070313 -135.35546875 94.41015625 C-135.88847404 99.25832693 -136.14322818 104.06127485 -136.1875 108.9375 C-136.19547607 109.79206787 -136.20345215 110.64663574 -136.21166992 111.52709961 C-136.14738622 118.5820731 -134.96740978 125.07683487 -133.03442383 131.85131836 C-132.45703125 133.97265625 -132.45703125 133.97265625 -131.875 137.5 C-133.92693697 140.34179506 -136.02752928 141.0514509 -139.3671875 141.81640625 C-140.23730469 142.02330078 -141.10742188 142.23019531 -142.00390625 142.44335938 C-142.91011719 142.64767578 -143.81632812 142.85199219 -144.75 143.0625 C-149.96096645 144.26991906 -154.92006516 145.45585388 -159.875 147.5 C-160.865 147.5 -161.855 147.5 -162.875 147.5 C-163.20925735 149.87374861 -163.20925735 149.87374861 -162.875 152.5 C-157.50017093 158.57589373 -144.88593731 160.00745558 -137.3359375 162.16210938 C-134.83253416 162.89646686 -132.35599767 163.69358351 -129.875 164.5 C-128.62046021 164.8400708 -128.62046021 164.8400708 -127.34057617 165.18701172 C-124.78884528 166.03098842 -122.96842468 166.80803481 -120.875 168.5 C-119.13651992 172.12018946 -118.69844888 175.79213632 -118.1875 179.75 C-117.81380117 182.08874995 -117.43873586 184.42728185 -117.0625 186.765625 C-116.87558594 188.01150391 -116.68867188 189.25738281 -116.49609375 190.54101562 C-115.52967162 196.85828967 -114.28983569 203.12700639 -113.0874939 209.40270996 C-112.44993094 212.74564707 -111.82987586 216.09179024 -111.20703125 219.4375 C-110.76386766 221.79182622 -110.31992121 224.1460053 -109.875 226.5 C-109.68212402 227.52996094 -109.48924805 228.55992187 -109.29052734 229.62109375 C-109.11602051 230.52988281 -108.94151367 231.43867188 -108.76171875 232.375 C-108.61307373 233.15617188 -108.46442871 233.93734375 -108.3112793 234.7421875 C-108.03166806 236.51531621 -108.03166806 236.51531621 -106.875 237.5 C-105.20882885 237.54063832 -103.54111905 237.542721 -101.875 237.5 C-98.37786665 224.07626891 -98.37786665 224.07626891 -96.375 210.375 C-96.05383677 206.78683151 -95.44053728 203.46619436 -94.4765625 199.984375 C-93.9547958 197.8295463 -93.53495937 195.69750561 -93.1484375 193.515625 C-92.95677002 192.43595459 -92.95677002 192.43595459 -92.76123047 191.33447266 C-92.50644078 189.87692104 -92.25792623 188.41825669 -92.01611328 186.95849609 C-91.0938202 181.7188202 -91.0938202 181.7188202 -88.875 179.5 C-86.44921875 179.48828125 -86.44921875 179.48828125 -83.5625 179.8125 C-82.61761719 179.91175781 -81.67273438 180.01101563 -80.69921875 180.11328125 C-77.875 180.5 -77.875 180.5 -75.546875 181.02734375 C-57.23142704 184.26735721 -38.28836684 179.64289535 -22.75 169.8125 C-4.76147194 157.2252271 4.7933401 139.42839554 8.62109375 118.05859375 C10.04528537 108.00093048 8.5867465 99.31263606 6.125 89.5 C5.92003906 88.61183594 5.71507812 87.72367187 5.50390625 86.80859375 C1.5844452 71.64198359 -9.16587063 58.30325036 -21.875 49.5 C-21.32700866 44.53028541 -20.24004481 40.41864933 -18.3125 35.8125 C-17.7728809 34.50804261 -17.23385166 33.20334111 -16.6953125 31.8984375 C-16.40430664 31.19944336 -16.11330078 30.50044922 -15.81347656 29.78027344 C-14.78913196 27.29136122 -13.79429919 24.79198216 -12.8046875 22.2890625 C-12.27790405 20.95814575 -12.27790405 20.95814575 -11.74047852 19.6003418 C-11.05231699 17.86007337 -10.36525781 16.11936853 -9.67944336 14.37817383 C-4.25436751 0.73989 -4.25436751 0.73989 0 0 Z " fill="#FDFDFD" transform="translate(398.875,241.5)"/>
<path d="M0 0 C3.51125562 1.92569608 6.57973176 3.8205141 9.62109375 6.4375 C9.62109375 7.0975 9.62109375 7.7575 9.62109375 8.4375 C10.19859375 8.66566406 10.77609375 8.89382812 11.37109375 9.12890625 C18.04551508 13.01073116 22.66144607 22.04389498 25.0078125 29.20703125 C27.20133511 40.76144651 26.68288172 54.05439771 21.37109375 64.5625 C20.7884375 65.74070312 20.20578125 66.91890625 19.60546875 68.1328125 C17.54227147 71.56876703 15.55317863 73.75818105 12.62109375 76.4375 C13.62603995 79.68424926 14.68930491 82.56381697 16.30859375 85.5625 C17.62109375 88.4375 17.62109375 88.4375 17.43359375 90.6875 C15.38081613 95.10886719 11.06114181 95.94363557 6.80859375 97.5 C6.09638672 97.76876953 5.38417969 98.03753906 4.65039062 98.31445312 C0.9972454 99.66959765 -2.51396569 100.82245052 -6.37890625 101.4375 C-8.58928278 97.85879514 -10.51509948 94.20687952 -12.37890625 90.4375 C-13.62285156 90.41171875 -14.86679687 90.3859375 -16.1484375 90.359375 C-30.13222658 89.94035347 -41.5298163 88.11887968 -52.37890625 78.4375 C-52.71792969 77.7465625 -53.05695313 77.055625 -53.40625 76.34375 C-54.65384532 73.89866359 -55.95940513 73.61933324 -58.37890625 72.4375 C-67.29477152 60.877977 -68.69396989 46.6796904 -67.05859375 32.69921875 C-64.80787414 20.85224919 -57.27967121 10.98870386 -47.71484375 3.9375 C-44.11440696 1.62551383 -40.3618641 -0.02891586 -36.37890625 -1.5625 C-35.6725 -1.91828125 -34.96609375 -2.2740625 -34.23828125 -2.640625 C-23.61801432 -6.06464549 -10.00321125 -4.57884312 0 0 Z " fill="#FCFCFC" transform="translate(280.37890625,136.5625)"/>
<path d="M0 0 C8.96016248 6.53260714 15.71890722 16.06324678 18.03125 27.046875 C19.24441174 37.59464236 18.54131579 47.34448072 15.3125 57.4921875 C14.6525 57.4921875 13.9925 57.4921875 13.3125 57.4921875 C13.17134766 58.57886719 13.17134766 58.57886719 13.02734375 59.6875 C10.71529853 68.7588031 1.87309415 74.84236043 -5.6875 79.4921875 C-6.52539062 80.02585937 -7.36328125 80.55953125 -8.2265625 81.109375 C-14.84787687 84.82992307 -22.27558667 84.77071451 -29.6875 84.4921875 C-29.86925781 85.09546875 -30.05101562 85.69875 -30.23828125 86.3203125 C-32.73495167 94.25844409 -32.73495167 94.25844409 -35.6875 97.4921875 C-40.76014064 96.91264319 -45.16903686 95.803382 -50 94.0546875 C-51.81951172 93.40693359 -51.81951172 93.40693359 -53.67578125 92.74609375 C-56.6875 91.4921875 -56.6875 91.4921875 -58.6875 89.4921875 C-59.32106684 84.17022604 -57.68707183 80.32448608 -55.6875 75.4921875 C-56.55955078 75.11320312 -56.55955078 75.11320312 -57.44921875 74.7265625 C-65.16229068 70.47293121 -71.22974854 60.84736429 -74.10742188 52.75341797 C-77.27163953 40.41882878 -76.11735917 25.53335982 -69.6875 14.4921875 C-62.90453054 3.82382777 -53.09095593 -4.53078806 -40.828125 -7.97265625 C-25.71919259 -10.54718826 -12.60667361 -8.72915338 0 0 Z " fill="#FCFCFC" transform="translate(431.6875,139.5078125)"/>
<path d="M0 0 C4.51849804 2.87540785 8.60635958 5.97145755 12.53515625 9.61328125 C13.18355469 10.20753906 13.83195312 10.80179688 14.5 11.4140625 C23.22529581 20.33028382 26.25548613 31.54564516 26.6027832 43.65966797 C26.67857367 46.15033558 26.67857367 46.15033558 27.53515625 49.61328125 C30.414637 51.66349902 30.414637 51.66349902 33.53515625 52.61328125 C34.53515625 53.61328125 34.53515625 53.61328125 34.97265625 56.05078125 C34.31519896 61.40436201 31.4356197 65.16025828 28.53515625 69.61328125 C27.99503906 70.51949219 27.45492187 71.42570312 26.8984375 72.359375 C25.53515625 74.61328125 25.53515625 74.61328125 24.53515625 75.61328125 C23.03397769 75.30649277 21.53422588 74.99271418 20.03515625 74.67578125 C16.62819186 74.28378677 15.11268721 74.22988654 12.22265625 76.1484375 C10.73133065 77.57318606 9.257924 79.01687229 7.80078125 80.4765625 C0.2499535 87.59777419 -10.84624534 90.36352282 -20.984375 90.74609375 C-31.59905251 90.34818963 -40.98243832 87.07606634 -49.46484375 80.61328125 C-50.91890625 79.56140625 -50.91890625 79.56140625 -52.40234375 78.48828125 C-60.85536392 71.23332693 -66.03195439 60.53568314 -67.46484375 49.61328125 C-68.36341718 34.06104887 -65.3345659 23.10053425 -55.65234375 10.86328125 C-52.09853679 6.95133871 -48.04189645 4.21241882 -43.46484375 1.61328125 C-42.24087891 0.87851563 -42.24087891 0.87851563 -40.9921875 0.12890625 C-29.24627585 -5.88770461 -11.78487505 -6.01961244 0 0 Z " fill="#FCFCFC" transform="translate(187.46484375,227.38671875)"/>
<path d="M0 0 C2.5 0.1875 2.5 0.1875 5 1 C7.00814678 4.01222017 7.43178644 5.49266527 8 8.97265625 C8.2475 10.44702148 8.2475 10.44702148 8.5 11.95117188 C8.7475 13.4912793 8.7475 13.4912793 9 15.0625 C9.33207811 17.07442633 9.66540205 19.08614745 10 21.09765625 C10.24641235 22.58422729 10.24641235 22.58422729 10.49780273 24.10083008 C11.10964301 27.63296583 11.81807724 31.14070854 12.53564453 34.65258789 C13.26041322 38.31644222 13.84728756 42.00002213 14.4375 45.6875 C15.76549306 53.83470728 17.31929546 61.91831432 19 70 C28.50274494 73.298956 38.05368491 76.22887708 47.7644043 78.85595703 C52.47369979 80.15823457 56.69776129 81.61222219 61 84 C61.125 86.375 61.125 86.375 61 89 C58.60302588 91.39697412 56.97748222 91.74583685 53.73046875 92.65625 C52.67666016 92.95660156 51.62285156 93.25695312 50.53710938 93.56640625 C49.43173828 93.87449219 48.32636719 94.18257813 47.1875 94.5 C45.01368057 95.11230742 42.84047946 95.72681521 40.66796875 96.34375 C39.70141357 96.61380859 38.7348584 96.88386719 37.73901367 97.16210938 C35.0879849 97.97308457 32.5678383 98.96002549 30 100 C27.67019821 100.51476799 25.33900654 100.93291147 22.98828125 101.33984375 C20.62337237 101.89883116 20.62337237 101.89883116 19 105 C18.29187186 107.32108669 17.61975848 109.65377147 17 112 C4.19902961 110.50181235 -6.37422778 100.75297078 -14.08544922 90.99853516 C-22.35054073 80.30973317 -22.35054073 80.30973317 -22 74 C-20.90042969 73.76023437 -19.80085938 73.52046875 -18.66796875 73.2734375 C-15.91089327 72.07845034 -15.15511874 71.38552137 -14.01806641 68.55957031 C-13.30221019 65.25734323 -12.77805614 61.97179835 -12.3125 58.625 C-11.91476594 56.15613657 -11.51632115 53.68738755 -11.1171875 51.21875 C-10.92995117 49.99285156 -10.74271484 48.76695312 -10.54980469 47.50390625 C-9.79399882 42.68715414 -8.8781521 37.90845328 -7.9375 33.125 C-7.61480664 31.45463513 -7.29318934 29.78406201 -6.97265625 28.11328125 C-6.73506592 26.87505615 -6.73506592 26.87505615 -6.49267578 25.61181641 C-5.95829394 22.77890413 -5.44468864 19.94267095 -4.93359375 17.10546875 C-4.75642822 16.13657715 -4.5792627 15.16768555 -4.39672852 14.16943359 C-4.05625209 12.30501845 -3.72182192 10.43948607 -3.39428711 8.57275391 C-3.24096924 7.74050293 -3.08765137 6.90825195 -2.9296875 6.05078125 C-2.79804199 5.31512939 -2.66639648 4.57947754 -2.53076172 3.8215332 C-2 2 -2 2 0 0 Z " fill="#FAFAFA" transform="translate(292,306)"/>
<path d="M0 0 C3.15177048 0.39441951 6.30187718 0.76329939 9.46289062 1.07421875 C13.39116335 1.53362032 16.37697013 1.90066547 19 5 C19.4552869 9.89903015 18.32769374 13.47378196 16.55078125 18.015625 C16.29628708 18.67149597 16.04179291 19.32736694 15.77958679 20.00311279 C15.24040867 21.38659831 14.69635156 22.76819118 14.14770508 24.14794922 C13.32208719 26.22587088 12.51233778 28.30941879 11.70507812 30.39453125 C4.08657787 49.91342213 4.08657787 49.91342213 1 53 C-3.07757365 53.28997058 -7.15888042 53.31398593 -11.24584961 53.35009766 C-12.61841818 53.36663658 -13.99090133 53.39390057 -15.36303711 53.43212891 C-17.34175904 53.48698079 -19.32137912 53.50564956 -21.30078125 53.5234375 C-23.08222534 53.5531665 -23.08222534 53.5531665 -24.8996582 53.58349609 C-28 53 -28 53 -30.25488281 50.81542969 C-31.95836915 48.06716382 -33.34674484 45.40006524 -34.62109375 42.4296875 C-35.08193359 41.3675 -35.54277344 40.3053125 -36.01757812 39.2109375 C-36.48615234 38.11007812 -36.95472656 37.00921875 -37.4375 35.875 C-38.37305312 33.70545101 -39.30924663 31.53617804 -40.24609375 29.3671875 C-40.70040771 28.30725586 -41.15472168 27.24732422 -41.62280273 26.15527344 C-43.35663193 22.1829266 -45.18869981 18.25978386 -47.046875 14.34423828 C-48.45831524 10.87276052 -48.69157321 8.68839046 -48 5 C-44.69201679 1.61683535 -40.68667729 1.03268406 -36.1875 0.3125 C-35.41720459 0.18584961 -34.64690918 0.05919922 -33.85327148 -0.07128906 C-23.5846325 -1.57723434 -9.97136171 -3.32378724 0 0 Z " fill="#FCFCFC" transform="translate(350,225)"/>
<path d="M0 0 C5.06787777 4.0516627 7.46255215 11.56081362 8.8125 17.6875 C8.874375 18.450625 8.93625 19.21375 9 20 C9.66 20 10.32 20 11 20 C12.5212035 23.3449395 14.01299807 26.70223288 15.5 30.0625 C15.92925781 31.00544922 16.35851562 31.94839844 16.80078125 32.91992188 C21.0744124 42.65430394 21.0744124 42.65430394 20 48 C18.11976865 50.23708546 16.54196719 51.82678965 14.3125 53.625 C13.24519217 54.53279524 12.17877756 55.44164173 11.11328125 56.3515625 C10.31978271 57.00366699 10.31978271 57.00366699 9.51025391 57.66894531 C7.75053315 59.15991717 7.75053315 59.15991717 5.54296875 61.8359375 C3 64 3 64 -0.37890625 64.53125 C-4.45401306 63.93339183 -7.44558033 62.55832999 -10.9375 60.5 C-12.2501 59.76218028 -13.56394718 59.02657581 -14.87890625 58.29296875 C-15.55324707 57.91317871 -16.22758789 57.53338867 -16.92236328 57.14208984 C-20.35241789 55.25656746 -23.8630863 53.53920819 -27.375 51.8125 C-42.87162122 44.12837878 -42.87162122 44.12837878 -46 41 C-46.62575834 36.98136845 -46.23198282 35.3535831 -43.98046875 31.921875 C-43.06680527 30.84957545 -42.13466202 29.79282855 -41.1875 28.75 C-40.69411133 28.18861328 -40.20072266 27.62722656 -39.69238281 27.04882812 C-32.95633281 19.522563 -25.53542657 12.44814462 -17 7 C-16.34 7 -15.68 7 -15 7 C-15 6.34 -15 5.68 -15 5 C-5.33203125 -1.015625 -5.33203125 -1.015625 0 0 Z " fill="#FAFAFA" transform="translate(274,242)"/>
<path d="M0 0 C1.32 1.32 2.64 2.64 4 4 C2.02 4.66 0.04 5.32 -2 6 C-2 13.59454361 2.42904793 18.26506943 7 24 C7.48726563 24.65355469 7.97453125 25.30710937 8.4765625 25.98046875 C14.15301928 33.23371908 23.17793922 40.10873638 32 43 C34.44497642 43.27995913 36.53036681 43.20580277 39 43 C38.505 43.99 38.505 43.99 38 45 C39.65 45.33 41.3 45.66 43 46 C43 46.33 43 46.66 43 47 C40.69 47.66 38.38 48.32 36 49 C35.82609741 49.98395752 35.82609741 49.98395752 35.64868164 50.98779297 C35.12316081 53.95077449 34.59289082 56.91288654 34.0625 59.875 C33.88009766 60.90753906 33.69769531 61.94007813 33.50976562 63.00390625 C33.33251953 63.99003906 33.15527344 64.97617187 32.97265625 65.9921875 C32.72914429 67.35899658 32.72914429 67.35899658 32.48071289 68.75341797 C32 71 32 71 31 73 C30.67561835 74.86961787 30.39074297 76.74615059 30.125 78.625 C29.32895831 83.95372686 28.46319591 89.26187828 27.5 94.5625 C27.38156738 95.24070801 27.26313477 95.91891602 27.14111328 96.61767578 C26.50914675 100.03989886 25.77684869 102.99007958 24 106 C21.625 106.125 21.625 106.125 19 106 C16.47238322 103.47238322 16.43038917 101.92463154 15.81640625 98.42578125 C15.51065674 96.72276855 15.51065674 96.72276855 15.19873047 94.98535156 C14.98877441 93.77331055 14.77881836 92.56126953 14.5625 91.3125 C14.11923599 88.83450178 13.67523136 86.35663593 13.23046875 83.87890625 C13.01825684 82.68539551 12.80604492 81.49188477 12.58740234 80.26220703 C11.48774661 74.15514141 10.23993687 68.07991771 9 62 C8.72837392 60.63687648 8.45757477 59.27358798 8.1875 57.91015625 C8.05166504 57.2253418 7.91583008 56.54052734 7.77587891 55.83496094 C7.39991175 53.93818143 7.02416674 52.0413579 6.6484375 50.14453125 C6.27979158 48.35682061 5.8865249 46.57275482 5.41796875 44.80859375 C4.74341653 41.88973696 4.94269216 38.98000778 5 36 C0.15734184 34.35409655 -4.69094024 32.77392999 -9.59375 31.31640625 C-11.04587891 30.88424805 -11.04587891 30.88424805 -12.52734375 30.44335938 C-14.50805377 29.85643413 -16.48982999 29.27309504 -18.47265625 28.69335938 C-33.92625979 24.07374021 -33.92625979 24.07374021 -38 20 C-37.625 17.375 -37.625 17.375 -37 15 C-34.62754387 14.2204787 -32.25304397 13.44968664 -29.875 12.6875 C-29.15812012 12.45675781 -28.44124023 12.22601563 -27.70263672 11.98828125 C-21.75230994 10.12315571 -15.8625653 8.92404201 -9.6953125 7.96875 C-6.76355487 7.25553073 -6.76355487 7.25553073 -5.6171875 4.40625 C-5.41351563 3.6121875 -5.20984375 2.818125 -5 2 C-4.505 2.99 -4.505 2.99 -4 4 C-2.68 3.67 -1.36 3.34 0 3 C0 2.01 0 1.02 0 0 Z " fill="#070707" transform="translate(273,374)"/>
<path d="M0 0 C1.32 0 2.64 0 4 0 C4.82134989 2.49738858 5.63215748 4.99744805 6.4375 7.5 C6.66759766 8.19609375 6.89769531 8.8921875 7.13476562 9.609375 C8.67049584 14.41687828 9.5077359 18.97551131 10 24 C11.16917969 24.25394531 12.33835937 24.50789063 13.54296875 24.76953125 C15.09125037 25.11672167 16.63942175 25.46440391 18.1875 25.8125 C19.34088867 26.0609668 19.34088867 26.0609668 20.51757812 26.31445312 C24.85256519 27.30052314 28.29753114 28.41049773 32 31 C31.67 31.99 31.34 32.98 31 34 C28.56859095 35.02593601 26.2618501 35.85867285 23.75 36.625 C23.08097656 36.8415625 22.41195312 37.058125 21.72265625 37.28125 C18.17865094 38.40920454 14.66418336 39.36089825 11 40 C10.61908203 41.59328125 10.61908203 41.59328125 10.23046875 43.21875 C8.51072914 50.31225684 6.81459476 57.24497259 4 64 C2.10644531 63.77294922 2.10644531 63.77294922 0 63 C-1.00488281 61.09814453 -1.00488281 61.09814453 -1.703125 58.6328125 C-1.9609375 57.74722656 -2.21875 56.86164063 -2.484375 55.94921875 C-2.73703125 55.01722656 -2.9896875 54.08523438 -3.25 53.125 C-3.518125 52.20074219 -3.78625 51.27648437 -4.0625 50.32421875 C-6 43.51331314 -6 43.51331314 -6 40 C-6.76183594 39.81824219 -7.52367187 39.63648438 -8.30859375 39.44921875 C-14.65889864 37.90326437 -20.83123818 36.15906664 -27 34 C-27 32.68 -27 31.36 -27 30 C-24.97944982 29.37408521 -22.9585454 28.74931391 -20.9375 28.125 C-19.75285156 27.74988281 -18.56820313 27.37476563 -17.34765625 26.98828125 C-14.81033128 26.23922265 -12.46778389 25.73249739 -9.875 25.3125 C-6.98724966 24.32540717 -6.98724966 24.32540717 -6.05859375 22.40625 C-5.18770965 19.96230301 -4.59299589 17.52697114 -4 15 C-3.65036962 13.68888608 -3.29585721 12.37906811 -2.9375 11.0703125 C-1.93135523 7.38692499 -0.95926848 3.69586179 0 0 Z " fill="#F6F6F6" transform="translate(341,291)"/>
<path d="M0 0 C1.8984375 0.23046875 1.8984375 0.23046875 4 1 C4.9765625 2.92578125 4.9765625 2.92578125 5.625 5.3125 C6.8017018 9.89284437 6.8017018 9.89284437 9 14 C12.05445588 15.24868684 12.05445588 15.24868684 15.5625 16.0625 C19.12890625 16.97265625 19.12890625 16.97265625 22 18 C22.495 19.485 22.495 19.485 23 21 C21.97519531 21.18691406 20.95039063 21.37382812 19.89453125 21.56640625 C12.44726961 23.07601374 12.44726961 23.07601374 6.79882812 27.70898438 C4.83229826 31.95922635 3.83711749 36.41028685 3 41 C1.515 40.505 1.515 40.505 0 40 C-1.16796875 37.34765625 -1.16796875 37.34765625 -2.1875 34.0625 C-2.53167969 32.98097656 -2.87585938 31.89945312 -3.23046875 30.78515625 C-4 28 -4 28 -4 26 C-4.65226562 25.81824219 -5.30453125 25.63648438 -5.9765625 25.44921875 C-10.92730011 24.02533404 -15.46546423 22.50592766 -20 20 C-17.40909278 16.69188663 -15.11023838 16.58785541 -11.0625 16.0625 C-7.81587693 15.47739737 -7.81587693 15.47739737 -5 14 C-2.74790321 10.17143546 -1.87705521 6.32307353 -1 2 C-0.67 1.34 -0.34 0.68 0 0 Z " fill="#F6F6F6" transform="translate(375,350)"/>
<path d="M0 0 C4.12751449 0.60698743 7.3321148 2.03810791 11 4 C11.125 6.375 11.125 6.375 11 9 C8.4033438 11.5966562 6.06184625 12.10687691 2.5625 13.1875 C1.40878906 13.55230469 0.25507813 13.91710937 -0.93359375 14.29296875 C-4 15 -4 15 -7 14 C-6.25 11.125 -6.25 11.125 -5 8 C-3.9790625 7.505 -3.9790625 7.505 -2.9375 7 C-2.298125 6.67 -1.65875 6.34 -1 6 C-0.18415432 2.94091587 -0.18415432 2.94091587 0 0 Z " fill="#F1F1F1" transform="translate(342,386)"/>
<path d="M0 0 C1.8984375 0.234375 1.8984375 0.234375 4 1 C4.9765625 2.890625 4.9765625 2.890625 5.625 5.25 C5.86089844 6.05824219 6.09679687 6.86648438 6.33984375 7.69921875 C6.55769531 8.45847656 6.77554687 9.21773438 7 10 C7.64896236 11.67363977 8.30580437 13.34461042 9 15 C8.195625 14.690625 8.195625 14.690625 7.375 14.375 C4.16732692 13.8685253 1.98682934 14.84599775 -1 16 C-1.33 15.34 -1.66 14.68 -2 14 C-2.66 14 -3.32 14 -4 14 C-3.71572583 12.41532272 -3.42225182 10.8322943 -3.125 9.25 C-2.96257812 8.36828125 -2.80015625 7.4865625 -2.6328125 6.578125 C-2.03203736 4.13052256 -1.22002883 2.19400143 0 0 Z " fill="#EDEDED" transform="translate(375,350)"/>
<path d="M0 0 C2.49389537 1.24694768 2.64573541 2.11618835 3.75 4.625 C6.29064389 9.90536809 9.64234566 14.26278101 14.375 17.75 C14.91125 18.1625 15.4475 18.575 16 19 C16 19.99 16 20.98 16 22 C13.9637551 20.98187755 11.93639045 19.96530388 9.9375 18.875 C7.89863452 17.79420664 7.89863452 17.79420664 5 18 C4.938125 17.113125 4.87625 16.22625 4.8125 15.3125 C3.8124508 11.23537635 2.03412752 9.80656795 -1 7 C-2 4 -2 4 -1.0625 1.8125 C-0.5365625 0.9153125 -0.5365625 0.9153125 0 0 Z " fill="#0E0E0E" transform="translate(123,289)"/>
<path d="M0 0 C1.32 0 2.64 0 4 0 C4.67184618 2.10251861 5.33730968 4.20707763 6 6.3125 C6.37125 7.48425781 6.7425 8.65601563 7.125 9.86328125 C8 13 8 13 8 16 C7.01 16.33 6.02 16.66 5 17 C4.401875 16.030625 3.80375 15.06125 3.1875 14.0625 C1.28872491 10.76947958 1.28872491 10.76947958 -2 10 C-1.46274105 6.62294375 -0.88935377 3.303314 0 0 Z " fill="#EAEAEA" transform="translate(341,291)"/>
<path d="M0 0 C0 0.33 0 0.66 0 1 C-0.86165771 1.02187378 -0.86165771 1.02187378 -1.74072266 1.04418945 C-4.36945696 1.11913725 -6.99698552 1.21563994 -9.625 1.3125 C-10.98044922 1.34633789 -10.98044922 1.34633789 -12.36328125 1.38085938 C-17.64878936 1.59305131 -21.38199672 2.17147299 -26 5 C-27.33333333 5.66666667 -28.66666667 6.33333333 -30 7 C-30.33 6.01 -30.66 5.02 -31 4 C-32.65 5.32 -34.3 6.64 -36 8 C-36 4 -36 4 -35 2 C-24.0695028 -1.61375622 -11.32133654 -0.18705818 0 0 Z " fill="#BABABA" transform="translate(347,224)"/>
<path d="M0 0 C1.051875 0.16048828 1.051875 0.16048828 2.125 0.32421875 C3.176875 0.47310547 3.176875 0.47310547 4.25 0.625 C6.125 1.01171875 6.125 1.01171875 8.125 2.01171875 C8.125 2.34171875 8.125 2.67171875 8.125 3.01171875 C8.455 4.00171875 8.785 4.99171875 9.125 6.01171875 C7.475 6.34171875 5.825 6.67171875 4.125 7.01171875 C4.125 8.00171875 4.125 8.99171875 4.125 10.01171875 C4.785 10.01171875 5.445 10.01171875 6.125 10.01171875 C6.125 10.67171875 6.125 11.33171875 6.125 12.01171875 C5.465 12.01171875 4.805 12.01171875 4.125 12.01171875 C3.795 13.00171875 3.465 13.99171875 3.125 15.01171875 C3.785 15.67171875 4.445 16.33171875 5.125 17.01171875 C2.815 17.34171875 0.505 17.67171875 -1.875 18.01171875 C-1.215 16.98046875 -0.555 15.94921875 0.125 14.88671875 C2.09782726 11.47595049 2.51327665 8.99155445 2.125 5.01171875 C0.145 4.02171875 -1.835 3.03171875 -3.875 2.01171875 C-1.875 0.01171875 -1.875 0.01171875 0 0 Z " fill="#090909" transform="translate(218.875,275.98828125)"/>
<path d="M0 0 C2 2 2 2 2.875 5 C3.69978825 8.10488746 3.69978825 8.10488746 6.125 9.375 C6.74375 9.58125 7.3625 9.7875 8 10 C7.34 11.32 6.68 12.64 6 14 C6 13.34 6 12.68 6 12 C3.03 12 0.06 12 -3 12 C-2.49202991 7.6822542 -1.80317221 3.96697886 0 0 Z " fill="#050505" transform="translate(270,231)"/>
<path d="M0 0 C0.66 0 1.32 0 2 0 C1.53234153 4.7190991 -0.34934594 6.91832317 -3.5625 10.3125 C-4.38878906 11.19550781 -5.21507812 12.07851563 -6.06640625 12.98828125 C-6.70449219 13.65214844 -7.34257812 14.31601562 -8 15 C-8.66 13.68 -9.32 12.36 -10 11 C-9.21072301 9.87332216 -8.41848345 8.74871933 -7.625 7.625 C-7.18414062 6.99851562 -6.74328125 6.37203125 -6.2890625 5.7265625 C-5 4 -5 4 -3 2 C-2.01 2 -1.02 2 0 2 C0 1.34 0 0.68 0 0 Z " fill="#121212" transform="translate(395,388)"/>
<path d="M0 0 C0.66 0.33 1.32 0.66 2 1 C-3.14285714 6.57142857 -3.14285714 6.57142857 -7 7 C-7 6.34 -7 5.68 -7 5 C-5.46875 3.7109375 -5.46875 3.7109375 -3.5 2.375 C-2.8503125 1.92898437 -2.200625 1.48296875 -1.53125 1.0234375 C-1.0259375 0.68570313 -0.520625 0.34796875 0 0 Z M-9 8 C-8.34 8.33 -7.68 8.66 -7 9 C-7.33 11.64 -7.66 14.28 -8 17 C-8.99 17.33 -9.98 17.66 -11 18 C-11 17.34 -11 16.68 -11 16 C-12.32 16.33 -13.64 16.66 -15 17 C-13.68775452 13.06326356 -12.08089673 10.77280706 -9 8 Z " fill="#F4F4F4" transform="translate(142,230)"/>
<path d="M0 0 C0.99 0 1.98 0 3 0 C3 0.66 3 1.32 3 2 C3.66 2 4.32 2 5 2 C5 1.34 5 0.68 5 0 C5.99 0.33 6.98 0.66 8 1 C5.31780271 4.52228173 1.65630401 5.21379266 -2.4375 6.25 C-3.10587891 6.435625 -3.77425781 6.62125 -4.46289062 6.8125 C-7.93225987 7.72024379 -10.59920109 8.35684049 -14 7 C-13.01 7 -12.02 7 -11 7 C-11 6.01 -11 5.02 -11 4 C-9.35 3.34 -7.7 2.68 -6 2 C-5.67 2.33 -5.34 2.66 -5 3 C-2.97080157 2.74276031 -2.97080157 2.74276031 -1 2 C-0.67 1.34 -0.34 0.68 0 0 Z " fill="#1A1A1A" transform="translate(327,313)"/>
<path d="M0 0 C0.66 0.66 1.32 1.32 2 2 C1.8125 4.0625 1.8125 4.0625 1 6 C-2.93670488 7.31223496 -5.12488144 6.24296256 -9 5 C-9 3.68 -9 2.36 -9 1 C-5.75778445 -0.08073852 -3.39597063 -0.21676408 0 0 Z " fill="#EFEFEF" transform="translate(323,320)"/>
<path d="M0 0 C2.475 0.495 2.475 0.495 5 1 C3.91479492 3.46948242 3.91479492 3.46948242 2 6 C-1.00268555 6.56762695 -1.00268555 6.56762695 -4.63671875 6.48828125 C-5.93544922 6.47216797 -7.23417969 6.45605469 -8.57226562 6.43945312 C-9.94402699 6.39767609 -11.31577177 6.35535135 -12.6875 6.3125 C-14.07092382 6.28741745 -15.45439077 6.26460418 -16.83789062 6.24414062 C-20.22634764 6.18510827 -23.61263385 6.10280082 -27 6 C-25 4 -25 4 -22.80102539 3.83642578 C-21.46285767 3.89032471 -21.46285767 3.89032471 -20.09765625 3.9453125 C-19.12505859 3.96980469 -18.15246094 3.99429687 -17.15039062 4.01953125 C-15.09541672 4.08972011 -13.0406974 4.16781839 -10.98632812 4.25390625 C-10.01244141 4.27582031 -9.03855469 4.29773438 -8.03515625 4.3203125 C-7.1419165 4.35398926 -6.24867676 4.38766602 -5.32836914 4.42236328 C-2.81826365 4.21261289 -2.81826365 4.21261289 -1.18530273 1.97998047 C-0.79415283 1.32658691 -0.40300293 0.67319336 0 0 Z " fill="#D2D2D2" transform="translate(349,272)"/>
<path d="M0 0 C1.33901367 0.07250977 1.33901367 0.07250977 2.70507812 0.14648438 C4.09823242 0.2305957 4.09823242 0.2305957 5.51953125 0.31640625 C6.93008789 0.3947168 6.93008789 0.3947168 8.36914062 0.47460938 C10.69044626 0.60422543 13.01131534 0.73918806 15.33203125 0.87890625 C15.99203125 2.19890625 16.65203125 3.51890625 17.33203125 4.87890625 C16.01203125 4.54890625 14.69203125 4.21890625 13.33203125 3.87890625 C13.33203125 3.21890625 13.33203125 2.55890625 13.33203125 1.87890625 C9.70203125 1.87890625 6.07203125 1.87890625 2.33203125 1.87890625 C2.33203125 2.86890625 2.33203125 3.85890625 2.33203125 4.87890625 C-0.66796875 5.87890625 -0.66796875 5.87890625 -2.66796875 5.12890625 C-4.64474691 3.8934199 -6.10469308 2.59850949 -7.66796875 0.87890625 C-4.68926498 -0.11399501 -3.0761399 -0.17633923 0 0 Z M-0.66796875 1.87890625 C-0.66796875 2.53890625 -0.66796875 3.19890625 -0.66796875 3.87890625 C-0.00796875 3.87890625 0.65203125 3.87890625 1.33203125 3.87890625 C1.33203125 3.21890625 1.33203125 2.55890625 1.33203125 1.87890625 C0.67203125 1.87890625 0.01203125 1.87890625 -0.66796875 1.87890625 Z " fill="#121212" transform="translate(252.66796875,225.12109375)"/>
<path d="M0 0 C0.99 0.33 1.98 0.66 3 1 C2.6875 2.9375 2.6875 2.9375 2 5 C1.01 5.33 0.02 5.66 -1 6 C-0.67 6.99 -0.34 7.98 0 9 C-1.4375 11.6875 -1.4375 11.6875 -3 14 C-3.99 13.67 -4.98 13.34 -6 13 C-2.86206897 2.86206897 -2.86206897 2.86206897 0 0 Z " fill="#EBEBEB" transform="translate(396,242)"/>
<path d="M0 0 C1.32 1.32 2.64 2.64 4 4 C2.02 4.66 0.04 5.32 -2 6 C-2.33 7.65 -2.66 9.3 -3 11 C-4.98 10.34 -6.96 9.68 -9 9 C-9 8.34 -9 7.68 -9 7 C-8.34 7 -7.68 7 -7 7 C-6.34 5.35 -5.68 3.7 -5 2 C-4.67 2.66 -4.34 3.32 -4 4 C-2.68 3.67 -1.36 3.34 0 3 C0 2.01 0 1.02 0 0 Z " fill="#131313" transform="translate(273,374)"/>
<path d="M0 0 C1.32 0.66 2.64 1.32 4 2 C4.21278058 6.46839215 3.59138085 9.82262526 2 14 C0.68 13.01 -0.64 12.02 -2 11 C-1.53078003 8.58686871 -1.0498364 6.19380821 -0.4375 3.8125 C0.07821351 1.98673164 0.07821351 1.98673164 0 0 Z " fill="#EAEAEA" transform="translate(365,228)"/>
<path d="M0 0 C0.33 0.99 0.66 1.98 1 3 C0.67 3.66 0.34 4.32 0 5 C1.32 6.32 2.64 7.64 4 9 C0.7 9.66 -2.6 10.32 -6 11 C-5.34 10.67 -4.68 10.34 -4 10 C-4.309375 9.38125 -4.61875 8.7625 -4.9375 8.125 C-5.625 6.75 -6.3125 5.375 -7 4 C-6.030625 3.71125 -5.06125 3.4225 -4.0625 3.125 C-0.89335797 2.35785318 -0.89335797 2.35785318 0 0 Z " fill="#1E1E1E" transform="translate(398,233)"/>
<path d="M0 0 C3.93673644 1.31224548 6.22719294 2.91910327 9 6 C7.25 6.625 7.25 6.625 5 7 C4.360625 6.67 3.72125 6.34 3.0625 6 C0.35978665 4.68959353 -1.17002588 5.21389608 -4 6 C-2.68 4.02 -1.36 2.04 0 0 Z " fill="#EDEDED" transform="translate(279,137)"/>
<path d="M0 0 C1.65 0.33 3.3 0.66 5 1 C3.63603413 5.09189762 1.65151017 5.61547327 -2.0625 7.6875 C-3.71958984 8.62142578 -3.71958984 8.62142578 -5.41015625 9.57421875 C-6.26480469 10.04472656 -7.11945313 10.51523437 -8 11 C-8.33 10.01 -8.66 9.02 -9 8 C-6.32521756 6.3372974 -4.0004856 5.00016187 -1 4 C-0.26676204 1.98491642 -0.26676204 1.98491642 0 0 Z " fill="#161616" transform="translate(377,405)"/>
<path d="M0 0 C0.763125 0.20625 1.52625 0.4125 2.3125 0.625 C1.9825 1.285 1.6525 1.945 1.3125 2.625 C1.1703012 6.46436768 1.13495324 9.94516639 2.3125 13.625 C1.6525 13.625 0.9925 13.625 0.3125 13.625 C-0.3475 10.985 -1.0075 8.345 -1.6875 5.625 C-2.6775 5.625 -3.6675 5.625 -4.6875 5.625 C-5.0175 4.305 -5.3475 2.985 -5.6875 1.625 C-2.6875 -0.375 -2.6875 -0.375 0 0 Z " fill="#191919" transform="translate(301.6875,227.375)"/>
<path d="M0 0 C0.33 0 0.66 0 1 0 C1 3.3 1 6.6 1 10 C1.66 10.33 2.32 10.66 3 11 C2.67 11.33 2.34 11.66 2 12 C2.66 12.66 3.32 13.32 4 14 C3.625 16.625 3.625 16.625 3 19 C1.35 19 -0.3 19 -2 19 C-1.34 12.73 -0.68 6.46 0 0 Z " fill="#0A0A0A" transform="translate(450,173)"/>
<path d="M0 0 C0.33 0.66 0.66 1.32 1 2 C1.66 2.33 2.32 2.66 3 3 C-0.63 5.31 -4.26 7.62 -8 10 C-8 5.92253115 -6.47931949 4.16801935 -4 1 C-1.75 0.125 -1.75 0.125 0 0 Z " fill="#E8E8E8" transform="translate(194,304)"/>
<path d="M0 0 C0.33 0 0.66 0 1 0 C1.06363291 4.09068678 1.08719859 7.64783089 -1.5546875 10.93359375 C-6.25494604 15 -6.25494604 15 -9 15 C-8.44732871 11.43066456 -7.36904661 10.18488899 -4.5 8.0625 C-1.93686008 6.00255319 -1.10975303 5.33657597 -0.0625 2.125 C-0.041875 1.42375 -0.02125 0.7225 0 0 Z " fill="#121212" transform="translate(294,285)"/>
<path d="M0 0 C-0.99 0.495 -0.99 0.495 -2 1 C-2.65772428 4.02934491 -2.65772428 4.02934491 -3 7 C-5.3125 7.3125 -5.3125 7.3125 -8 7 C-9.8125 4.5 -9.8125 4.5 -11 2 C-7.17679443 0.57741188 -4.08718695 -0.24042276 0 0 Z " fill="#E7E7E7" transform="translate(161,224)"/>
<path d="M0 0 C1.134375 0.020625 2.26875 0.04125 3.4375 0.0625 C2.7775 2.0425 2.1175 4.0225 1.4375 6.0625 C-0.9375 6.1875 -0.9375 6.1875 -3.5625 6.0625 C-4.2225 5.4025 -4.8825 4.7425 -5.5625 4.0625 C-4.23308824 0.07426471 -4.23308824 0.07426471 0 0 Z " fill="#171717" transform="translate(295.5625,473.9375)"/>
<path d="M0 0 C4.81033104 2.54664585 8.32442148 4.99027798 12 9 C10.02 9.99 10.02 9.99 8 11 C2.2 5.2 2.2 5.2 0 2 C0 1.34 0 0.68 0 0 Z " fill="#E7E7E7" transform="translate(410,247)"/>
<path d="M0 0 C2.97 0.99 5.94 1.98 9 3 C6.63707344 5.52588702 5.33537489 6.88820837 2 8 C2 7.01 2 6.02 2 5 C0.35 4.67 -1.3 4.34 -3 4 C-2.34 3.67 -1.68 3.34 -1 3 C-0.67 2.01 -0.34 1.02 0 0 Z " fill="#0D0D0D" transform="translate(380,232)"/>
<path d="M0 0 C1.9375 0.75 1.9375 0.75 4 2 C4.6875 3.9375 4.6875 3.9375 5 6 C5.33 6.99 5.66 7.98 6 9 C5.67 9.99 5.34 10.98 5 12 C4.01 11.67 3.02 11.34 2 11 C1.05078125 8.71484375 1.05078125 8.71484375 0.3125 5.9375 C0.06113281 5.01839844 -0.19023437 4.09929687 -0.44921875 3.15234375 C-0.63097656 2.44207031 -0.81273437 1.73179687 -1 1 C-0.67 0.67 -0.34 0.34 0 0 Z " fill="#EEEEEE" transform="translate(373,379)"/>
<path d="M0 0 C2.31 0.33 4.62 0.66 7 1 C6.67 2.32 6.34 3.64 6 5 C4.35 4.67 2.7 4.34 1 4 C0.67 2.68 0.34 1.36 0 0 Z M-2 4 C-1.34 4.33 -0.68 4.66 0 5 C-0.33 6.65 -0.66 8.3 -1 10 C-1.99 8.68 -2.98 7.36 -4 6 C-3.34 5.34 -2.68 4.68 -2 4 Z " fill="#F5F5F5" transform="translate(398,242)"/>
<path d="M0 0 C1.45792884 -0.05399736 2.91642712 -0.09279177 4.375 -0.125 C5.18710937 -0.14820313 5.99921875 -0.17140625 6.8359375 -0.1953125 C9 0 9 0 11 2 C5.70769231 5.07692308 5.70769231 5.07692308 2.125 4.6875 C1.42375 4.460625 0.7225 4.23375 0 4 C0 2.68 0 1.36 0 0 Z " fill="#E2E2E2" transform="translate(273,233)"/>
<path d="M0 0 C0.66 0 1.32 0 2 0 C3.65 2.97 5.3 5.94 7 9 C6.01 9.66 5.02 10.32 4 11 C3.54625 10.360625 3.0925 9.72125 2.625 9.0625 C1.16078274 6.90297594 1.16078274 6.90297594 -1 6 C-0.67 4.02 -0.34 2.04 0 0 Z " fill="#111111" transform="translate(218,429)"/>
<path d="M0 0 C0.99 0 1.98 0 3 0 C3.74926071 3.66305234 4.2380014 6.42355152 3 10 C1 9 1 9 -1 6 C-1.625 3.8125 -1.625 3.8125 -2 2 C-1.34 2 -0.68 2 0 2 C0 1.34 0 0.68 0 0 Z " fill="#EFEFEF" transform="translate(295,308)"/>
<path d="M0 0 C3.36016893 1.12005631 4.69064913 2.37211797 7 5 C7 5.66 7 6.32 7 7 C6.236875 6.814375 5.47375 6.62875 4.6875 6.4375 C1.91032625 5.77180827 1.91032625 5.77180827 -1 7 C-1.66 6.01 -2.32 5.02 -3 4 C-2.01 2.68 -1.02 1.36 0 0 Z " fill="#111111" transform="translate(219,206)"/>
<path d="M0 0 C-0.309375 1.010625 -0.61875 2.02125 -0.9375 3.0625 C-2.59380097 9.55848891 -2.67001477 16.33082492 -3 23 C-3.33 23 -3.66 23 -4 23 C-4.25561761 19.91826331 -4.47482039 16.83497376 -4.6875 13.75 C-4.76033203 12.87730469 -4.83316406 12.00460938 -4.90820312 11.10546875 C-5.32824425 4.63189382 -5.32824425 4.63189382 -3.64453125 1.390625 C-2 0 -2 0 0 0 Z " fill="#292929" transform="translate(360,159)"/>
<path d="M0 0 C2 3 2 3 2 5 C2.66 5.33 3.32 5.66 4 6 C0.68885166 7.12880057 -2.58978257 8.21302675 -6 9 C-4.68775452 5.06326356 -3.08089673 2.77280706 0 0 Z " fill="#EDEDED" transform="translate(370,144)"/>
<path d="M0 0 C1.52775619 2.4264363 2.04888437 3.60892503 1.6875 6.5 C1.460625 7.325 1.23375 8.15 1 9 C0.855625 9.721875 0.71125 10.44375 0.5625 11.1875 C0 13 0 13 -2 15 C-2.66 14.67 -3.32 14.34 -4 14 C-3.52188823 12.22888156 -3.0424722 10.45811517 -2.5625 8.6875 C-2.29566406 7.70136719 -2.02882813 6.71523438 -1.75390625 5.69921875 C-1.21920575 3.78482474 -0.62855462 1.88566385 0 0 Z " fill="#232323" transform="translate(382,376)"/>
<path d="M0 0 C0 2.31 0 4.62 0 7 C-0.78375 7.12375 -1.5675 7.2475 -2.375 7.375 C-5.14057822 7.79117993 -5.14057822 7.79117993 -7 10 C-6.6875 7.625 -6.6875 7.625 -6 5 C-5.01 4.34 -4.02 3.68 -3 3 C-4.98 3 -6.96 3 -9 3 C-9 2.67 -9 2.34 -9 2 C-3.375 0 -3.375 0 0 0 Z " fill="#262626" transform="translate(216,301)"/>
<path d="M0 0 C1.4606285 2.64738916 2 3.89448334 2 7 C1.01 7 0.02 7 -1 7 C-1.66 8.32 -2.32 9.64 -3 11 C-3.66 8.36 -4.32 5.72 -5 3 C-4.34 3 -3.68 3 -3 3 C-2.67 2.34 -2.34 1.68 -2 1 C-1.34 0.67 -0.68 0.34 0 0 Z " fill="#101010" transform="translate(372,225)"/>
<path d="M0 0 C2.64 1.32 5.28 2.64 8 4 C5.01353231 5.99097846 2.40312738 6.94124926 -1 8 C-2 6 -2 6 -1.0625 2.875 C-0.5365625 1.451875 -0.5365625 1.451875 0 0 Z " fill="#111111" transform="translate(229,216)"/>
<path d="M0 0 C0.99 0.33 1.98 0.66 3 1 C1.4114658 5.28904235 -1.43127368 7.32345526 -5 10 C-5.66 10 -6.32 10 -7 10 C-7 9.34 -7 8.68 -7 8 C-6.01 7.34 -5.02 6.68 -4 6 C-4.33 5.34 -4.66 4.68 -5 4 C-4.67 3.34 -4.34 2.68 -4 2 C-3.01 2 -2.02 2 -1 2 C-0.67 1.34 -0.34 0.68 0 0 Z " fill="#0F0F0F" transform="translate(230,138)"/>
<path d="M0 0 C0 0.66 0 1.32 0 2 C0.99 1.34 1.98 0.68 3 0 C3.99 0.33 4.98 0.66 6 1 C3.68118495 3.67901932 1.68185532 4.66204403 -1.6875 5.6875 C-2.89986328 6.06455078 -2.89986328 6.06455078 -4.13671875 6.44921875 C-5.05904297 6.72185547 -5.05904297 6.72185547 -6 7 C-5.39816251 4.97954558 -4.72693904 2.97888961 -4 1 C-2 0 -2 0 0 0 Z " fill="#101010" transform="translate(246,130)"/>
<path d="M0 0 C0.33 0 0.66 0 1 0 C1.66 4.62 2.32 9.24 3 14 C-1 12 -1 12 -2.25 8.875 C-2.4975 7.92625 -2.745 6.9775 -3 6 C-2.34 5.67 -1.68 5.34 -1 5 C-0.34444881 2.47266765 -0.34444881 2.47266765 0 0 Z " fill="#E5E5E5" transform="translate(285,451)"/>
<path d="M0 0 C1.65 0.33 3.3 0.66 5 1 C5.33 1.99 5.66 2.98 6 4 C1.56923077 6.09230769 1.56923077 6.09230769 -1.3125 5.625 C-1.869375 5.41875 -2.42625 5.2125 -3 5 C-2.67 4.01 -2.34 3.02 -2 2 C-1.34 2 -0.68 2 0 2 C0 1.34 0 0.68 0 0 Z " fill="#E6E6E6" transform="translate(392,367)"/>
<path d="M0 0 C3.465 1.485 3.465 1.485 7 3 C6.67 5.97 6.34 8.94 6 12 C4.66666667 9.33333333 3.33333333 6.66666667 2 4 C1.01 4 0.02 4 -1 4 C-1 1 -1 1 0 0 Z " fill="#E3E3E3" transform="translate(257,329)"/>
<path d="M0 0 C0.66 0.66 1.32 1.32 2 2 C0.7934375 3.175625 0.7934375 3.175625 -0.4375 4.375 C-2.98690417 6.71982856 -2.98690417 6.71982856 -4 9 C-6.31 8.67 -8.62 8.34 -11 8 C-7.38813161 5.25498003 -3.69604737 2.62987986 0 0 Z " fill="#1A1A1A" transform="translate(433,213)"/>
<path d="M0 0 C1.8125 0.0625 1.8125 0.0625 4 1 C5.75 4.5625 5.75 4.5625 7 8 C6.01 8.66 5.02 9.32 4 10 C1.63443291 7.63443291 1.41755959 6.25696479 1 3 C1.33 2.67 1.66 2.34 2 2 C1.34 1.34 0.68 0.68 0 0 Z " fill="#E8E8E8" transform="translate(280,394)"/>
<path d="M0 0 C3.94726562 -0.42905061 6.61242079 -0.08466413 10 2 C9.67 2.99 9.34 3.98 9 5 C8.236875 4.67 7.47375 4.34 6.6875 4 C4.00930865 2.82563314 4.00930865 2.82563314 1 3 C0.34 3.66 -0.32 4.32 -1 5 C-1.33 4.34 -1.66 3.68 -2 3 C-1.34 2.01 -0.68 1.02 0 0 Z " fill="#EDEDED" transform="translate(211,308)"/>
<path d="M0 0 C0.33 0.66 0.66 1.32 1 2 C0.0625 4.125 0.0625 4.125 -1 6 C-1.33 5.34 -1.66 4.68 -2 4 C-2.226875 4.639375 -2.45375 5.27875 -2.6875 5.9375 C-4 8 -4 8 -6.625 8.75 C-7.40875 8.8325 -8.1925 8.915 -9 9 C-9 8.01 -9 7.02 -9 6 C-7.35 5.34 -5.7 4.68 -4 4 C-4 3.34 -4 2.68 -4 2 C-2.68 1.34 -1.36 0.68 0 0 Z " fill="#EAEAEA" transform="translate(263,245)"/>
<path d="M0 0 C0.66 0.33 1.32 0.66 2 1 C1.67 1.99 1.34 2.98 1 4 C1.66 4 2.32 4 3 4 C3 4.66 3 5.32 3 6 C2.01 6.33 1.02 6.66 0 7 C-0.66 6.34 -1.32 5.68 -2 5 C-2.77772405 7.33317216 -3.42415568 9.61435923 -4 12 C-4.66 10.02 -5.32 8.04 -6 6 C-4.02 4.02 -2.04 2.04 0 0 Z " fill="#161616" transform="translate(298,207)"/>
<path d="M0 0 C0.80050781 0.54140625 1.60101563 1.0828125 2.42578125 1.640625 C3.23402344 2.17171875 4.04226563 2.7028125 4.875 3.25 C5.48988281 3.79140625 6.10476563 4.3328125 6.73828125 4.890625 C6.73828125 5.880625 6.73828125 6.870625 6.73828125 7.890625 C5.74828125 7.560625 4.75828125 7.230625 3.73828125 6.890625 C3.73828125 5.900625 3.73828125 4.910625 3.73828125 3.890625 C2.74828125 3.890625 1.75828125 3.890625 0.73828125 3.890625 C0.40828125 4.550625 0.07828125 5.210625 -0.26171875 5.890625 C-0.26171875 4.570625 -0.26171875 3.250625 -0.26171875 1.890625 C-1.58171875 2.220625 -2.90171875 2.550625 -4.26171875 2.890625 C-4.59171875 1.900625 -4.92171875 0.910625 -5.26171875 -0.109375 C-2.26171875 -1.109375 -2.26171875 -1.109375 0 0 Z " fill="#E9E9E9" transform="translate(429.26171875,138.109375)"/>
<path d="M0 0 C2.00720923 0.28674418 4.0085944 0.61866701 6 1 C6 1.99 6 2.98 6 4 C-0.27 3.67 -6.54 3.34 -13 3 C-13 2.67 -13 2.34 -13 2 C-12.14535156 1.93941406 -11.29070312 1.87882813 -10.41015625 1.81640625 C-8.75306641 1.69072266 -8.75306641 1.69072266 -7.0625 1.5625 C-5.96035156 1.48128906 -4.85820312 1.40007812 -3.72265625 1.31640625 C-1.08890097 1.29581916 -1.08890097 1.29581916 0 0 Z " fill="#3E3E3E" transform="translate(410,128)"/>
<path d="M0 0 C1 4 1 4 0 7 C-2.5625 8.1875 -2.5625 8.1875 -5 9 C-5.66 8.34 -6.32 7.68 -7 7 C-4.69 4.69 -2.38 2.38 0 0 Z " fill="#F1F1F1" transform="translate(390,399)"/>
<path d="M0 0 C1.21333397 2.42666795 1 4.33499722 1 7 C1.66 7.33 2.32 7.66 3 8 C2.67 9.32 2.34 10.64 2 12 C0.68 12.33 -0.64 12.66 -2 13 C-2 12.34 -2 11.68 -2 11 C-1.34 11 -0.68 11 0 11 C-0.66 10.34 -1.32 9.68 -2 9 C-2.33 8.34 -2.66 7.68 -3 7 C-2.06421005 4.64018187 -1.06652192 2.30368736 0 0 Z " fill="#161616" transform="translate(348,346)"/>
<path d="M0 0 C0.33 1.32 0.66 2.64 1 4 C1.66 4 2.32 4 3 4 C3 4.66 3 5.32 3 6 C2.34 6 1.68 6 1 6 C0.67 6.99 0.34 7.98 0 9 C0.66 9.66 1.32 10.32 2 11 C-0.31 11.33 -2.62 11.66 -5 12 C-4.360625 10.948125 -3.72125 9.89625 -3.0625 8.8125 C-1.38245548 5.89171588 -0.41003948 3.3828257 0 0 Z " fill="#1B1B1B" transform="translate(222,282)"/>
<path d="M0 0 C0.66 0.33 1.32 0.66 2 1 C1.67 1.928125 1.34 2.85625 1 3.8125 C-0.14967004 6.92029291 -0.14967004 6.92029291 0 10 C-1.65 10 -3.3 10 -5 10 C-5.33 9.01 -5.66 8.02 -6 7 C-4.78515625 5.17578125 -4.78515625 5.17578125 -3.0625 3.3125 C-2.49660156 2.68988281 -1.93070312 2.06726563 -1.34765625 1.42578125 C-0.90292969 0.95527344 -0.45820313 0.48476562 0 0 Z " fill="#0C0C0C" transform="translate(440,206)"/>
<path d="M0 0 C2.88437779 1.29299694 4.87219421 2.65941363 7 5 C6.67 5.99 6.34 6.98 6 8 C4.125 7.75 4.125 7.75 2 7 C0.27898465 4.41847698 0 3.15081975 0 0 Z " fill="#E9E9E9" transform="translate(209,407)"/>
<path d="M0 0 C0.99 0.66 1.98 1.32 3 2 C2.34 2 1.68 2 1 2 C1 2.66 1 3.32 1 4 C1.99 3.67 2.98 3.34 4 3 C4 6.51716303 3.17554415 7.37121748 1 10 C0.938125 9.38125 0.87625 8.7625 0.8125 8.125 C0.171081 5.72238859 0.171081 5.72238859 -2.5625 4.75 C-3.366875 4.5025 -4.17125 4.255 -5 4 C-4.0409375 3.8453125 -4.0409375 3.8453125 -3.0625 3.6875 C-2.381875 3.460625 -1.70125 3.23375 -1 3 C-0.67 2.01 -0.34 1.02 0 0 Z " fill="#141414" transform="translate(352,384)"/>
<path d="M0 0 C2.97 0.495 2.97 0.495 6 1 C6.68707555 3.49064888 7 5.37886292 7 8 C4.03 6.35 1.06 4.7 -2 3 C-1.34 2.67 -0.68 2.34 0 2 C0 1.34 0 0.68 0 0 Z " fill="#171717" transform="translate(405,240)"/>
<path d="M0 0 C3.81300782 3.2870757 5.22972246 6.39727838 7 11 C5.25 10.9375 5.25 10.9375 3 10 C1.23264713 7.74590076 0.2300899 5.64241534 -1 3 C-0.67 2.01 -0.34 1.02 0 0 Z " fill="#E4E4E4" transform="translate(439,147)"/>
<path d="M0 0 C2.1875 -0.3125 2.1875 -0.3125 5 0 C8.16528569 2.65000662 10.43646684 5.16223678 12 9 C7.18966896 6.45335415 3.67557852 4.00972202 0 0 Z " fill="#DEDEDE" transform="translate(285,404)"/>
<path d="M0 0 C0.66 0.66 1.32 1.32 2 2 C-1.3 4.31 -4.6 6.62 -8 9 C-8.33 8.34 -8.66 7.68 -9 7 C-8.34 6.01 -7.68 5.02 -7 4 C-6.34 4.33 -5.68 4.66 -5 5 C-4.67 4.01 -4.34 3.02 -4 2 C-1.9375 0.8125 -1.9375 0.8125 0 0 Z " fill="#EAEAEA" transform="translate(434,210)"/>
<path d="M0 0 C0.33 1.32 0.66 2.64 1 4 C-1.89234315 4.82638376 -3.88742431 5 -7 5 C-7 4.01 -7 3.02 -7 2 C-2.25 0 -2.25 0 0 0 Z " fill="#121212" transform="translate(477,408)"/>
<path d="M0 0 C2.625 1.4375 2.625 1.4375 5 3 C2.23776722 5.76223278 -0.20706617 5.57856291 -4 6 C-2.25 1.125 -2.25 1.125 0 0 Z " fill="#E4E4E4" transform="translate(339,395)"/>
<path d="M0 0 C0.33 0 0.66 0 1 0 C1.33 6.93 1.66 13.86 2 21 C-0.8290723 18.1709277 -1.37611108 17.61855575 -2 14 C-1.34 14 -0.68 14 0 14 C0 9.38 0 4.76 0 0 Z " fill="#D8D8D8" transform="translate(261,344)"/>
<path d="M0 0 C0.66 0 1.32 0 2 0 C1.88590407 1.45922693 1.75834456 2.91740598 1.625 4.375 C1.55539063 5.18710937 1.48578125 5.99921875 1.4140625 6.8359375 C1 9 1 9 -1 11 C-1 10.34 -1 9.68 -1 9 C-1.66 9 -2.32 9 -3 9 C-2 6 -1 3 0 0 Z " fill="#151515" transform="translate(205,314)"/>
<path d="M0 0 C5.75 0.75 5.75 0.75 8 3 C3.56923077 5.09230769 3.56923077 5.09230769 0.6875 4.625 C0.130625 4.41875 -0.42625 4.2125 -1 4 C-0.67 2.68 -0.34 1.36 0 0 Z " fill="#0C0C0C" transform="translate(233,288)"/>
<path d="M0 0 C0.99 0.33 1.98 0.66 3 1 C3.8125 2.9375 3.8125 2.9375 4 5 C3.34 5.66 2.68 6.32 2 7 C-0.125 6.625 -0.125 6.625 -2 6 C-2.33 4.68 -2.66 3.36 -3 2 C-2.01 1.34 -1.02 0.68 0 0 Z " fill="#EAEAEA" transform="translate(308,241)"/>
<path d="M0 0 C2.6875 0.875 2.6875 0.875 5 2 C5 2.66 5 3.32 5 4 C5.639375 4.12375 6.27875 4.2475 6.9375 4.375 C7.618125 4.58125 8.29875 4.7875 9 5 C9.33 5.66 9.66 6.32 10 7 C5.52761347 5.58192622 1.28853694 3.88695626 -3 2 C-2.01 1.34 -1.02 0.68 0 0 Z " fill="#DADADA" transform="translate(247,291)"/>
<path d="M0 0 C2 2 2 2 2.3125 5.5 C2.209375 6.655 2.10625 7.81 2 9 C1.01 9.66 0.02 10.32 -1 11 C-1.66 10.34 -2.32 9.68 -3 9 C-3 8.34 -3 7.68 -3 7 C-1.68 6.67 -0.36 6.34 1 6 C1 5.34 1 4.68 1 4 C0.34 4 -0.32 4 -1 4 C-0.67 2.68 -0.34 1.36 0 0 Z " fill="#E3E3E3" transform="translate(292,281)"/>
<path d="M0 0 C2.64465038 3.1254959 3.84414715 6.08788267 5 10 C4.01 10.33 3.02 10.66 2 11 C1.46770674 9.73392393 0.94955456 8.46189588 0.4375 7.1875 C0.14746094 6.47980469 -0.14257812 5.77210938 -0.44140625 5.04296875 C-1 3 -1 3 0 0 Z " fill="#1B1B1B" transform="translate(305,244)"/>
<path d="M0 0 C-0.99 1.485 -0.99 1.485 -2 3 C-4.625 3.1875 -4.625 3.1875 -7 3 C-7.33 3.66 -7.66 4.32 -8 5 C-8.66 4.34 -9.32 3.68 -10 3 C-9 1 -9 1 -6.6875 -0.1875 C-3.88010429 -1.03624754 -2.698065 -0.99928333 0 0 Z " fill="#EFEFEF" transform="translate(367,419)"/>
<path d="M0 0 C-0.33 0.99 -0.66 1.98 -1 3 C-2.32303717 3.3721042 -3.65737935 3.70630173 -5 4 C-5.33 4.66 -5.66 5.32 -6 6 C-6.66 5.34 -7.32 4.68 -8 4 C-10.06874034 3.3574765 -10.06874034 3.3574765 -12 3 C-10.37604003 2.49663233 -8.75079459 1.99741024 -7.125 1.5 C-6.22007812 1.2215625 -5.31515625 0.943125 -4.3828125 0.65625 C-2 0 -2 0 0 0 Z " fill="#292929" transform="translate(254,384)"/>
<path d="M0 0 C1.66905241 3.33810482 2.8741386 6.46157845 4 10 C2.02 10 0.04 10 -2 10 C-1.34 6.7 -0.68 3.4 0 0 Z " fill="#E5E5E5" transform="translate(373,354)"/>
<path d="M0 0 C0.66 0.33 1.32 0.66 2 1 C3.67654729 0.72057545 5.34608154 0.39171753 7 0 C7 1.32 7 2.64 7 4 C4.6875 4.6875 4.6875 4.6875 2 5 C0.1875 3.5625 0.1875 3.5625 -1 2 C-0.67 1.34 -0.34 0.68 0 0 Z " fill="#EAEAEA" transform="translate(365,321)"/>
<path d="M0 0 C3.81684226 1.55500981 6.19195732 4.03595495 9 7 C6.8125 7.375 6.8125 7.375 4 7 C2.00977164 5.16038352 0.61010101 3.20813852 -1 1 C-0.67 0.67 -0.34 0.34 0 0 Z " fill="#EFEFEF" transform="translate(425,260)"/>
<path d="M0 0 C-0.33 0.99 -0.66 1.98 -1 3 C-3.64 3 -6.28 3 -9 3 C-8.67 2.01 -8.34 1.02 -8 0 C-5.13822943 -1.43088528 -3.06624227 -0.59991697 0 0 Z " fill="#EBEBEB" transform="translate(466,411)"/>
<path d="M0 0 C1.32 0 2.64 0 4 0 C4 0.66 4 1.32 4 2 C5.65 2 7.3 2 9 2 C6.94766315 4.2477975 5.99332739 5.0022242 3 6 C2.01 5.34 1.02 4.68 0 4 C0 2.68 0 1.36 0 0 Z " fill="#131313" transform="translate(257,241)"/>
<path d="M0 0 C0.33 0.66 0.66 1.32 1 2 C2.98 2 4.96 2 7 2 C7 1.34 7 0.68 7 0 C8.32 0.66 9.64 1.32 11 2 C10.34 3.32 9.68 4.64 9 6 C9 5.34 9 4.68 9 4 C6.03 4 3.06 4 0 4 C0 2.68 0 1.36 0 0 Z " fill="#1B1B1B" transform="translate(267,239)"/>
<path d="M0 0 C1.32 0.99 2.64 1.98 4 3 C3 6 3 6 2 7 C1.01 7.33 0.02 7.66 -1 8 C-1 4.88742431 -0.82638376 2.89234315 0 0 Z " fill="#191919" transform="translate(226,440)"/>
<path d="M0 0 C3.465 1.98 3.465 1.98 7 4 C3.78767875 5.07077375 1.36062193 5 -2 5 C-1.34 3.35 -0.68 1.7 0 0 Z " fill="#0F0F0F" transform="translate(290,409)"/>
<path d="M0 0 C3.04852433 4.5727865 4.25765879 7.17833079 4.125 12.75 C4.10695313 13.73484375 4.08890625 14.7196875 4.0703125 15.734375 C4.03550781 16.85585938 4.03550781 16.85585938 4 18 C3.67 18 3.34 18 3 18 C2.96261719 17.32453125 2.92523438 16.6490625 2.88671875 15.953125 C2.82097656 15.06109375 2.75523437 14.1690625 2.6875 13.25 C2.62949219 12.36828125 2.57148438 11.4865625 2.51171875 10.578125 C1.93333132 7.66411201 0.82009459 6.29490188 -1 4 C-0.6875 1.75 -0.6875 1.75 0 0 Z " fill="#BCBCBC" transform="translate(490,374)"/>
<path d="M0 0 C2.375 0.6875 2.375 0.6875 5 2 C6.3125 4.625 6.3125 4.625 7 7 C5.02 6.34 3.04 5.68 1 5 C1 4.34 1 3.68 1 3 C0.34 2.67 -0.32 2.34 -1 2 C-0.67 1.34 -0.34 0.68 0 0 Z " fill="#F6F6F6" transform="translate(257,361)"/>
<path d="M0 0 C0 3 0 3 -2 6 C-6 6 -6 6 -10 4 C-6.7 2.68 -3.4 1.36 0 0 Z " fill="#161616" transform="translate(190,311)"/>
<path d="M0 0 C0.66 0 1.32 0 2 0 C5.42857143 8.42857143 5.42857143 8.42857143 5 13 C4.34 12.34 3.68 11.68 3 11 C3 10.34 3 9.68 3 9 C2.34 8.67 1.68 8.34 1 8 C0.40644386 5.35139573 0.25790731 2.70802678 0 0 Z " fill="#E4E4E4" transform="translate(208,251)"/>
<path d="M0 0 C0.33 0 0.66 0 1 0 C1.144375 0.94875 1.28875 1.8975 1.4375 2.875 C1.82935399 5.8934494 1.82935399 5.8934494 3 8 C2.34 8.66 1.68 9.32 1 10 C-0.65 7.69 -2.3 5.38 -4 3 C-3.01 2.67 -2.02 2.34 -1 2 C-0.67 1.34 -0.34 0.68 0 0 Z " fill="#1A1A1A" transform="translate(298,145)"/>
<path d="M0 0 C7.57142857 1.85714286 7.57142857 1.85714286 10 5 C9.01 5.33 8.02 5.66 7 6 C1.36619718 2.73239437 1.36619718 2.73239437 0 0 Z " fill="#E4E4E4" transform="translate(236,496)"/>
<path d="M0 0 C0.33 0 0.66 0 1 0 C1.33 3.96 1.66 7.92 2 12 C0.68 10.68 -0.64 9.36 -2 8 C-1.9355877 5.05850486 -0.94310882 2.82932647 0 0 Z " fill="#CFCFCF" transform="translate(300,320)"/>
<path d="M0 0 C0.33 0.66 0.66 1.32 1 2 C1.66 2 2.32 2 3 2 C3.33 4.31 3.66 6.62 4 9 C4.99 9.33 5.98 9.66 7 10 C6.01 10.495 6.01 10.495 5 11 C2 9 2 9 1.26953125 6.8359375 C1.11871094 6.02382813 0.96789062 5.21171875 0.8125 4.375 C0.65394531 3.55773437 0.49539062 2.74046875 0.33203125 1.8984375 C0.22246094 1.27195312 0.11289063 0.64546875 0 0 Z " fill="#E9E9E9" transform="translate(121,280)"/>
<path d="M0 0 C4.75 0.875 4.75 0.875 7 2 C7 2.66 7 3.32 7 4 C3.98968256 4.93423645 3.13349732 5.04449911 0 4 C0 2.68 0 1.36 0 0 Z " fill="#EBEBEB" transform="translate(183,227)"/>
<path d="M0 0 C4.29 0 8.58 0 13 0 C13.66 1.32 14.32 2.64 15 4 C13.68 3.67 12.36 3.34 11 3 C11 2.34 11 1.68 11 1 C7.37 1 3.74 1 0 1 C0 0.67 0 0.34 0 0 Z " fill="#525252" transform="translate(255,226)"/>
<path d="M0 0 C1.32 0 2.64 0 4 0 C4.66 2.31 5.32 4.62 6 7 C5.01 7.33 4.02 7.66 3 8 C0 2.25 0 2.25 0 0 Z " fill="#131313" transform="translate(482,355)"/>
<path d="M0 0 C2.125 0.9375 2.125 0.9375 4 2 C3.67 3.32 3.34 4.64 3 6 C1.68 5.67 0.36 5.34 -1 5 C-1.33 3.68 -1.66 2.36 -2 1 C-1.34 0.67 -0.68 0.34 0 0 Z " fill="#EEEEEE" transform="translate(342,349)"/>
<path d="M0 0 C2.30163882 3.45245824 2.34490322 4.94738713 2 9 C1.34 9.66 0.68 10.32 0 11 C-1.76062164 7.67438135 -2.10784228 6.40826005 -1.125 2.6875 C-0.568125 1.3571875 -0.568125 1.3571875 0 0 Z " fill="#E6E6E6" transform="translate(382,273)"/>
<path d="M0 0 C2.64 0.66 5.28 1.32 8 2 C7.67 3.65 7.34 5.3 7 7 C6.01 6.34 5.02 5.68 4 5 C4 4.34 4 3.68 4 3 C2.68 2.34 1.36 1.68 0 1 C0 0.67 0 0.34 0 0 Z " fill="#E1E1E1" transform="translate(222,208)"/>
<path d="M0 0 C0.33 0 0.66 0 1 0 C1.24867947 2.60364409 1.47457902 5.20589894 1.6875 7.8125 C1.79674805 8.91948242 1.79674805 8.91948242 1.90820312 10.04882812 C2.07421875 12.20703125 2.07421875 12.20703125 2 16 C1.01 16.99 0.02 17.98 -1 19 C-0.67 12.73 -0.34 6.46 0 0 Z " fill="#505050" transform="translate(306,172)"/>
<path d="M0 0 C1.4540625 0.0309375 1.4540625 0.0309375 2.9375 0.0625 C1.54628255 2.8449349 -0.36414212 3.61460065 -3.0625 5.0625 C-3.7225 5.0625 -4.3825 5.0625 -5.0625 5.0625 C-3.9375 0.08035714 -3.9375 0.08035714 0 0 Z " fill="#EAEAEA" transform="translate(313.0625,420.9375)"/>
<path d="M0 0 C0.66 0 1.32 0 2 0 C1.19642857 8.03571429 1.19642857 8.03571429 -1 12 C-1.02712066 10.56260487 -1.04645067 9.12506137 -1.0625 7.6875 C-1.07410156 6.88699219 -1.08570313 6.08648437 -1.09765625 5.26171875 C-1 3 -1 3 0 0 Z " fill="#161616" transform="translate(405,363)"/>
<path d="M0 0 C2.45823172 3.68734758 3.01242616 6.69699971 4 11 C3.01 11.495 3.01 11.495 2 12 C2 11.34 2 10.68 2 10 C1.34 10 0.68 10 0 10 C0.2784375 9.0409375 0.2784375 9.0409375 0.5625 8.0625 C0.706875 7.381875 0.85125 6.70125 1 6 C0.67 5.67 0.34 5.34 0 5 C-0.04063832 3.33382885 -0.042721 1.66611905 0 0 Z " fill="#1C1C1C" transform="translate(402,321)"/>
<path d="M0 0 C0.66 1.32 1.32 2.64 2 4 C-2.43076923 6.09230769 -2.43076923 6.09230769 -5.3125 5.625 C-5.869375 5.41875 -6.42625 5.2125 -7 5 C-6.01 5 -5.02 5 -4 5 C-4 4.01 -4 3.02 -4 2 C-2.68 1.34 -1.36 0.68 0 0 Z " fill="#111111" transform="translate(320,315)"/>
<path d="M0 0 C0.99 0.33 1.98 0.66 3 1 C3 1.99 3 2.98 3 4 C3.66 4.33 4.32 4.66 5 5 C4.34 7.64 3.68 10.28 3 13 C2.67 13 2.34 13 2 13 C1.93941406 12.22914063 1.87882812 11.45828125 1.81640625 10.6640625 C1.73261719 9.66117187 1.64882813 8.65828125 1.5625 7.625 C1.48128906 6.62726563 1.40007812 5.62953125 1.31640625 4.6015625 C1.15034374 2.02072387 1.15034374 2.02072387 0 0 Z " fill="#232323" transform="translate(297,305)"/>
<path d="M0 0 C1.875 0.125 1.875 0.125 4 1 C5.25 4.0625 5.25 4.0625 6 7 C4.35 6.67 2.7 6.34 1 6 C0.67 4.02 0.34 2.04 0 0 Z " fill="#E7E7E7" transform="translate(272,242)"/>
<path d="M0 0 C2.31 0.33 4.62 0.66 7 1 C6.01 1.495 6.01 1.495 5 2 C4.67 2.66 4.34 3.32 4 4 C4 3.34 4 2.68 4 2 C2.35 3.32 0.7 4.64 -1 6 C-1 2 -1 2 0 0 Z " fill="#EEEEEE" transform="translate(312,226)"/>
<path d="M0 0 C1.34173403 0.92543709 2.67320159 1.86577405 4 2.8125 C5.11375 3.59560547 5.11375 3.59560547 6.25 4.39453125 C6.8275 4.92433594 7.405 5.45414063 8 6 C8 6.99 8 7.98 8 9 C7.01 8.67 6.02 8.34 5 8 C5 7.34 5 6.68 5 6 C4.34 6 3.68 6 3 6 C3 5.34 3 4.68 3 4 C2.34 4 1.68 4 1 4 C0.67 2.68 0.34 1.36 0 0 Z " fill="#131313" transform="translate(368,209)"/>
<path d="M0 0 C0.33 0 0.66 0 1 0 C1 3.3 1 6.6 1 10 C1.66 10.33 2.32 10.66 3 11 C1.68 12.65 0.36 14.3 -1 16 C-0.67 10.72 -0.34 5.44 0 0 Z " fill="#424242" transform="translate(450,173)"/>
<path d="M0 0 C0.33 0.66 0.66 1.32 1 2 C-0.24546405 5.73639216 -1.63404953 6.18756513 -5 8 C-5.33 7.01 -5.66 6.02 -6 5 C-4.02 3.35 -2.04 1.7 0 0 Z " fill="#181818" transform="translate(488,400)"/>
<path d="M0 0 C1.65 1.65 3.3 3.3 5 5 C4.01 5.99 3.02 6.98 2 8 C0.23537317 4.91190305 0 3.76687864 0 0 Z " fill="#141414" transform="translate(392,305)"/>
<path d="M0 0 C2.31 0 4.62 0 7 0 C4.78065836 3.32901247 3.65316671 3.75023244 0 5 C-0.33 4.01 -0.66 3.02 -1 2 C-0.67 1.34 -0.34 0.68 0 0 Z " fill="#262626" transform="translate(402,224)"/>
<path d="M0 0 C0.66 0.33 1.32 0.66 2 1 C1.67 1.66 1.34 2.32 1 3 C2.98 2.67 4.96 2.34 7 2 C4.61426621 3.89213369 2.92824652 5.02391783 0 6 C-0.66 4.68 -1.32 3.36 -2 2 C-1.34 1.34 -0.68 0.68 0 0 Z " fill="#181818" transform="translate(141,225)"/>
<path d="M0 0 C0.99 0.33 1.98 0.66 3 1 C3.66 0.67 4.32 0.34 5 0 C5.33 0.99 5.66 1.98 6 3 C4.02 3.99 4.02 3.99 2 5 C0.68 4.01 -0.64 3.02 -2 2 C-1.34 2 -0.68 2 0 2 C0 1.34 0 0.68 0 0 Z " fill="#1A1A1A" transform="translate(426,133)"/>
<path d="M0 0 C3 2 3 2 4 4 C1.69 4.66 -0.62 5.32 -3 6 C-2.67 4.68 -2.34 3.36 -2 2 C-1.34 2 -0.68 2 0 2 C0 1.34 0 0.68 0 0 Z " fill="#DDDDDD" transform="translate(323,400)"/>
<path d="M0 0 C-1.32 0.99 -2.64 1.98 -4 3 C-4.66 2.67 -5.32 2.34 -6 2 C-6.66 2.66 -7.32 3.32 -8 4 C-7.625 2.0625 -7.625 2.0625 -7 0 C-4.3333581 -1.33332095 -2.83319697 -0.67102033 0 0 Z " fill="#E0E0E0" transform="translate(278,379)"/>
<path d="M0 0 C1.0625 1.875 1.0625 1.875 2 4 C1.67 4.66 1.34 5.32 1 6 C-1.97 5.505 -1.97 5.505 -5 5 C-4.34 4.67 -3.68 4.34 -3 4 C-2.67 3.34 -2.34 2.68 -2 2 C-1.34 1.34 -0.68 0.68 0 0 Z " fill="#171717" transform="translate(380,345)"/>
<path d="M0 0 C1.5625 1.25 1.5625 1.25 3 3 C2.6875 5.1875 2.6875 5.1875 2 7 C1.67 6.34 1.34 5.68 1 5 C0.01 4.67 -0.98 4.34 -2 4 C-1.34 2.68 -0.68 1.36 0 0 Z " fill="#DEDEDE" transform="translate(476,344)"/>
<path d="M0 0 C2.475 0.99 2.475 0.99 5 2 C4.67 2.99 4.34 3.98 4 5 C1.9375 5.6875 1.9375 5.6875 0 6 C-1.24546405 3.50907189 -0.7767578 2.58919267 0 0 Z " fill="#E6E6E6" transform="translate(242,321)"/>
<path d="M0 0 C2.475 0.99 2.475 0.99 5 2 C4.34 3.32 3.68 4.64 3 6 C1.68 5.67 0.36 5.34 -1 5 C-0.67 3.35 -0.34 1.7 0 0 Z " fill="#101010" transform="translate(250,295)"/>
<path d="M0 0 C2.31 0.66 4.62 1.32 7 2 C6.01 2.99 5.02 3.98 4 5 C2.02 4.01 0.04 3.02 -2 2 C-1.34 1.34 -0.68 0.68 0 0 Z " fill="#171717" transform="translate(217,276)"/>
<path d="M0 0 C0.625 1.8125 0.625 1.8125 1 4 C0.01 5.485 0.01 5.485 -1 7 C-0.67 7.66 -0.34 8.32 0 9 C-0.66 9.66 -1.32 10.32 -2 11 C-2.66 9.02 -3.32 7.04 -4 5 C-3.01 4.34 -2.02 3.68 -1 3 C-0.67 2.01 -0.34 1.02 0 0 Z " fill="#191919" transform="translate(294,270)"/>
<path d="M0 0 C1.98 0.99 1.98 0.99 4 2 C4 3.32 4 4.64 4 6 C3.01 5.67 2.02 5.34 1 5 C0.67 3.35 0.34 1.7 0 0 Z " fill="#0C0C0C" transform="translate(288,269)"/>
<path d="M0 0 C2.625 0.375 2.625 0.375 5 1 C5.33 2.32 5.66 3.64 6 5 C5.01 4.67 4.02 4.34 3 4 C3 3.01 3 2.02 3 1 C2.34 1 1.68 1 1 1 C1 1.66 1 2.32 1 3 C0.01 2.67 -0.98 2.34 -2 2 C-1.34 1.34 -0.68 0.68 0 0 Z " fill="#F2F2F2" transform="translate(268,242)"/>
<path d="M0 0 C2.46278801 2.46278801 2.99771255 4.70676982 4 8 C2.02 7.34 0.04 6.68 -2 6 C-1.34 4.02 -0.68 2.04 0 0 Z " fill="#171717" transform="translate(270,231)"/>
<path d="M0 0 C1.65 1.65 3.3 3.3 5 5 C4.01 5.33 3.02 5.66 2 6 C0.68 4.68 -0.64 3.36 -2 2 C-1.34 1.34 -0.68 0.68 0 0 Z " fill="#181818" transform="translate(286,137)"/>
<path d="M0 0 C-3.3 1.32 -6.6 2.64 -10 4 C-9.67 2.68 -9.34 1.36 -9 0 C-3.375 -1.125 -3.375 -1.125 0 0 Z " fill="#1E1E1E" transform="translate(389,133)"/>
<path d="M0 0 C-0.33 1.32 -0.66 2.64 -1 4 C-3.475 3.01 -3.475 3.01 -6 2 C-6 1.34 -6 0.68 -6 0 C-3.50907189 -1.24546405 -2.58919267 -0.7767578 0 0 Z " fill="#171717" transform="translate(243,394)"/>
<path d="M0 0 C-3.72965139 2.03435531 -5.66905042 3 -10 3 C-6.81859267 -0.48439851 -4.56758339 -1.41752588 0 0 Z " fill="#D0D0D0" transform="translate(365,367)"/>
<path d="M0 0 C0.66 0.33 1.32 0.66 2 1 C2.625 3.5625 2.625 3.5625 3 6 C2.01 6.33 1.02 6.66 0 7 C-0.66 5.02 -1.32 3.04 -2 1 C-1.34 0.67 -0.68 0.34 0 0 Z " fill="#131313" transform="translate(476,337)"/>
<path d="M0 0 C1.32 1.65 2.64 3.3 4 5 C3.01 5.66 2.02 6.32 1 7 C-1 4 -1 4 -0.625 1.8125 C-0.41875 1.214375 -0.2125 0.61625 0 0 Z " fill="#161616" transform="translate(397,312)"/>
<path d="M0 0 C0.66 0.33 1.32 0.66 2 1 C2.625 3.0625 2.625 3.0625 3 5 C1.35 5.33 -0.3 5.66 -2 6 C-1.34 4.02 -0.68 2.04 0 0 Z " fill="#131313" transform="translate(123,289)"/>
<path d="M0 0 C-0.33 1.65 -0.66 3.3 -1 5 C-2.32 4.67 -3.64 4.34 -5 4 C-4.67 3.01 -4.34 2.02 -4 1 C-2 0 -2 0 0 0 Z " fill="#141414" transform="translate(382,274)"/>
<path d="M0 0 C0.99 0 1.98 0 3 0 C3.66 1.98 4.32 3.96 5 6 C4.01 6 3.02 6 2 6 C1.34 4.02 0.68 2.04 0 0 Z " fill="#111111" transform="translate(436,266)"/>
<path d="M0 0 C1.65 0 3.3 0 5 0 C5.33 0.99 5.66 1.98 6 3 C5.01 3.66 4.02 4.32 3 5 C1.68 4.34 0.36 3.68 -1 3 C-0.67 2.01 -0.34 1.02 0 0 Z " fill="#0B0B0B" transform="translate(233,262)"/>
<path d="M0 0 C1.32 0.33 2.64 0.66 4 1 C3.34 3.64 2.68 6.28 2 9 C0.14223235 5.86501708 -0.20140476 3.62528568 0 0 Z " fill="#181818" transform="translate(384,258)"/>
<path d="M0 0 C1.65 0.33 3.3 0.66 5 1 C0.25 5.875 0.25 5.875 -2 7 C-1.34 4.69 -0.68 2.38 0 0 Z " fill="#101010" transform="translate(241,257)"/>
<path d="M0 0 C2.9375 0.375 2.9375 0.375 6 1 C6.33 1.66 6.66 2.32 7 3 C5.02 3.99 5.02 3.99 3 5 C1.5 3.625 1.5 3.625 0 2 C0 1.34 0 0.68 0 0 Z " fill="#EEEEEE" transform="translate(415,253)"/>
<path d="M0 0 C0.66 0.66 1.32 1.32 2 2 C1.8125 4 1.8125 4 1 6 C0.01 6.66 -0.98 7.32 -2 8 C-1.125 2.25 -1.125 2.25 0 0 Z " fill="#DDDDDD" transform="translate(296,223)"/>
<path d="M0 0 C2.475 0.99 2.475 0.99 5 2 C3.02 2.99 3.02 2.99 1 4 C1 4.66 1 5.32 1 6 C-0.32 5.67 -1.64 5.34 -3 5 C-2.505 4.54625 -2.01 4.0925 -1.5 3.625 C0.22609337 2.12364481 0.22609337 2.12364481 0 0 Z " fill="#171717" transform="translate(390,360)"/>
<path d="M0 0 C1.5 1.375 1.5 1.375 3 3 C3 3.66 3 4.32 3 5 C1 7 1 7 -1 8 C-0.67 5.36 -0.34 2.72 0 0 Z " fill="#D5D5D5" transform="translate(122,254)"/>
<path d="M0 0 C0.66 0.33 1.32 0.66 2 1 C-2.75 5.875 -2.75 5.875 -5 7 C-5.66 6.34 -6.32 5.68 -7 5 C-4.69 3.35 -2.38 1.7 0 0 Z " fill="#D9D9D9" transform="translate(142,230)"/>
<path d="M0 0 C1.32 0 2.64 0 4 0 C3.34 1.65 2.68 3.3 2 5 C1.01 4.67 0.02 4.34 -1 4 C-0.67 2.68 -0.34 1.36 0 0 Z " fill="#E9E9E9" transform="translate(298,199)"/>
<path d="M0 0 C0.66 0.99 1.32 1.98 2 3 C0.1875 4.0625 0.1875 4.0625 -2 5 C-2.99 4.67 -3.98 4.34 -5 4 C-3.35 2.68 -1.7 1.36 0 0 Z " fill="#E5E5E5" transform="translate(382,135)"/>
</svg>
